<?xml version="1.0" standalone="no"?>
<!DOCTYPE svg PUBLIC "-//W3C//DTD SVG 1.1//EN" "http://www.w3.org/Graphics/SVG/1.1/DTD/svg11.dtd" >
<svg xmlns="http://www.w3.org/2000/svg">
<metadata>
Created by FontForge 20120731 at Mon Aug  8 10:42:50 2016
 By admin
</metadata>
<defs>
<font id="iconfont" horiz-adv-x="1024" >
  <font-face 
    font-family="iconfont"
    font-weight="500"
    font-stretch="normal"
    units-per-em="1024"
    panose-1="2 0 6 3 0 0 0 0 0 0"
    ascent="896"
    descent="-128"
    x-height="792"
    bbox="-0.76 -212 1613 896"
    underline-thickness="50"
    underline-position="-100"
    unicode-range="U+0078-E66D"
  />
<missing-glyph horiz-adv-x="374" 
d="M34 0v682h272v-682h-272zM68 34h204v614h-204v-614z" />
    <glyph glyph-name=".notdef" horiz-adv-x="374" 
d="M34 0v682h272v-682h-272zM68 34h204v614h-204v-614z" />
    <glyph glyph-name=".null" horiz-adv-x="0" 
 />
    <glyph glyph-name="nonmarkingreturn" horiz-adv-x="341" 
 />
    <glyph glyph-name="x" unicode="x" horiz-adv-x="1001" 
d="M281 543q-27 -1 -53 -1h-83q-18 0 -36.5 -6t-32.5 -18.5t-23 -32t-9 -45.5v-76h912v41q0 16 -0.5 30t-0.5 18q0 13 -5 29t-17 29.5t-31.5 22.5t-49.5 9h-133v-97h-438v97zM955 310v-52q0 -23 0.5 -52t0.5 -58t-10.5 -47.5t-26 -30t-33 -16t-31.5 -4.5q-14 -1 -29.5 -0.5
t-29.5 0.5h-32l-45 128h-439l-44 -128h-29h-34q-20 0 -45 1q-25 0 -41 9.5t-25.5 23t-13.5 29.5t-4 30v167h911zM163 247q-12 0 -21 -8.5t-9 -21.5t9 -21.5t21 -8.5q13 0 22 8.5t9 21.5t-9 21.5t-22 8.5zM316 123q-8 -26 -14 -48q-5 -19 -10.5 -37t-7.5 -25t-3 -15t1 -14.5
t9.5 -10.5t21.5 -4h37h67h81h80h64h36q23 0 34 12t2 38q-5 13 -9.5 30.5t-9.5 34.5q-5 19 -11 39h-368zM336 498v228q0 11 2.5 23t10 21.5t20.5 15.5t34 6h188q31 0 51.5 -14.5t20.5 -52.5v-227h-327z" />
    <glyph glyph-name="uniE600" unicode="&#xe600;" 
d="M512.5 702q-67.5 0 -115.5 -47t-48 -113t48 -113.5t115.5 -47.5t115.5 47.5t48 113.5t-48 113t-115.5 47zM512.5 453q-37.5 0 -64 26t-26.5 63t26.5 63t64 26t64 -26t26.5 -63t-26.5 -63t-64 -26zM895 518q0 102 -51 188.5t-139.5 137t-192 50.5t-192 -50.5t-139.5 -137
t-51 -188.5q0 -57 36.5 -144t96 -181.5t107 -163.5t97.5 -134q17 -23 45.5 -23t45.5 23q50 65 97.5 134t107 163.5t96 181.5t36.5 144zM518 -48l-6 -8l-6 8q-143 190 -226.5 342.5t-83.5 223.5q0 129 93 220t223.5 91t223.5 -91t93 -220q0 -71 -83.5 -223.5t-227.5 -342.5z
" />
    <glyph glyph-name="uniE601" unicode="&#xe601;" 
d="M1012 -65l-226 201q42 53 67 116q35 86 35 179.5t-35 179.5q-33 83 -94 147t-141 99q-82 37 -172.5 37t-173.5 -37q-79 -35 -140.5 -99t-94.5 -147q-35 -86 -35 -179.5t35 -179.5q33 -82 94.5 -146t140.5 -100q83 -36 173.5 -36t172.5 36q66 29 120 79l227 -202
q10 -9 24 -9q15 0 26 12q10 11 9 25.5t-12 23.5zM445 40q-101 0 -187 52.5t-136 142.5t-50 196.5t50 196.5t136 142.5t187 52.5t187 -52.5t136 -142.5t50 -196.5t-50 -196.5t-136 -142.5t-187 -52.5z" />
    <glyph glyph-name="uniE602" unicode="&#xe602;" 
d="M717 215q35 0 66 -13.5t54 -37t36.5 -54.5t13.5 -67t-13.5 -67t-36.5 -54t-54 -36.5t-66.5 -13.5t-66.5 13.5t-54.5 36.5t-37 54t-13.5 67q0 11 1 20t3 19l-172 145q-15 -8 -32.5 -11t-35.5 -3q-36 0 -67 13.5t-54.5 36t-37 53.5t-13.5 67t13.5 67t37 54.5t54.5 37
t67 13.5q40 0 77 -18l163 152q-4 14 -4 35q0 36 13.5 67t37 53.5t54.5 36.5t66.5 14t66.5 -14t54 -36.5t36.5 -53.5t13.5 -67t-13.5 -67t-36.5 -54.5t-54 -37t-66 -13.5q-25 0 -47.5 6.5t-41.5 18.5l-155 -145q6 -25 6 -49q0 -30 -9 -56l160 -135q19 11 41 17t46 6z" />
    <glyph glyph-name="uniE603" unicode="&#xe603;" horiz-adv-x="1025" 
d="M346 6l-346 345l77 78l269 -269l602 602l77 -77z" />
    <glyph glyph-name="uniE604" unicode="&#xe604;" 
d="M317 207h540q20 0 37 12t23 31l103 446q9 17 -9 51q-6 12 -21.5 19t-29.5 7h-737l-26 112h-163q-14 0 -24 -7t-10 -19q0 -13 10.5 -23.5t23.5 -10.5h112l51 -223v-17l77 -318q-28 -13 -48 -44t-20 -67q0 -43 34 -77q-13 -14 -23.5 -36.5t-10.5 -40.5q0 -45 33 -78.5
t78 -33.5q46 0 79 29.5t33 73.5q0 9 -4.5 26t-4.5 26h369q-9 -17 -9 -52q0 -45 33 -78t78 -33t78.5 33t33.5 78t-28.5 75t-74.5 37h-9h-574q-19 0 -35 16t-16 35q17 51 51 51zM883 45q19 0 35 -16t16 -36t-13 -31.5t-38 -11.5q-19 0 -35.5 16.5t-16.5 35.5q0 18 16 30.5
t36 12.5zM317 -50q-19 0 -35 16.5t-16 35.5t16 35t35 16v0q19 0 35.5 -16t16.5 -35q0 -24 -15.5 -38t-36.5 -14zM857 267h-514l-69 300h652zM960 713l-17 -86h-686l-17 78z" />
    <glyph glyph-name="uniE605" unicode="&#xe605;" 
d="M971 437h-404v404q0 22 -16 37.5t-38 15.5t-37.5 -15.5t-15.5 -37.5v-404h-404q-22 0 -37.5 -16t-15.5 -38t15.5 -37.5t37.5 -15.5h404v-404q0 -22 15.5 -37.5t37.5 -15.5t38 15.5t16 37.5v404h404q22 0 37.5 15.5t15.5 37.5t-15.5 38t-37.5 16z" />
    <glyph glyph-name="uniE606" unicode="&#xe606;" horiz-adv-x="1025" 
d="M973 333h-922q-21 0 -36 15t-15 36t15 36t36 15h922q21 0 36 -15t15 -36t-15 -36t-36 -15z" />
    <glyph glyph-name="uniE607" unicode="&#xe607;" 
d="M512 896q-161 0 -291.5 -91.5t-186.5 -237.5h79q33 71 89 127q62 62 142 95t168 33t168 -33t142 -95t95 -142t33 -168t-33 -168t-95 -142t-142 -95t-168 -33t-168 33t-142 95q-56 56 -89 127h-79q56 -146 186.5 -237.5t291.5 -91.5q104 0 198.5 41t163 109t109.5 163
t41 199t-41 198.5t-109.5 163t-163 109.5t-198.5 41zM400 229l51 -52l207 207l-207 207l-51 -52l118 -118h-518v-74h518z" />
    <glyph glyph-name="uniE608" unicode="&#xe608;" 
d="M479 606q0 15 10.5 26t25.5 11t26 -11t11 -26v-553q0 -15 -11 -25.5t-26 -10.5t-25.5 10.5t-10.5 25.5v553zM307 606q0 15 10.5 26t25.5 11t26 -11t11 -26v-553q0 -15 -11 -25.5t-26 -10.5t-25.5 10.5t-10.5 25.5v553zM650 606q0 15 11 26t26 11t25.5 -11t10.5 -26v-553
q0 -15 -10.5 -25.5t-25.5 -10.5t-26 10.5t-11 25.5v553zM953 785h-144h-52v46q0 27 -21.5 45.5t-51.5 18.5h-338q-30 0 -51 -18.5t-21 -45.5v-45h-53h-149q-15 0 -26 -11t-11 -26t11 -25.5t26 -10.5h77v-769q0 -30 21 -50.5t51 -20.5h588q30 0 51.5 20.5t21.5 50.5v768h71
q15 0 25.5 11t10.5 26t-10.5 25.5t-25.5 10.5zM346 822h338v-37h-338v37zM771 -55q-472 -2 -512 -2q-18 0 -27.5 10.5t-9.5 20.5l-1 11v692q0 19 9 27.5t18 8.5l9 -1h89h338h82h5q3 0 10.5 -1.5t13 -4.5t10 -10.5t4.5 -18.5q0 -19 0.5 -349t0.5 -347q0 -32 -37 -36h-2z" />
    <glyph glyph-name="uniE609" unicode="&#xe609;" 
d="M490 -128h-30h-256h-160v520h-42v252h199q-43 29 -61 72q-26 61 -2 115q19 42 64 55q23 7 47 7q37 0 69 -16q14 -7 37 -28q29 -27 67 -92l9 -15q26 -45 45 -62q16 -16 36 -16l2 1q21 0 37 16q18 18 45 63l12 21q45 77 88 105q36 23 81 23q20 0 40 -5q41 -11 61 -42
q29 -41 17 -101q-12 -58 -64 -97l-6 -4h198v-252h-41q-1 -97 -1 -293q1 -143 0 -215v-12h-324h-89h-78zM649 231v-294h268v455h-268v-161zM377 -63v25q0 287 -1 430h-267v-455h213h55zM584 -63v641h-143v-641h143zM958 457v122h-309v-122h154h155zM377 457v122h-310v-122h54
h256zM650 664q23 0 37 1q47 1 86 22q46 25 57 66q9 35 -5 57q-8 12 -28 16q-10 2 -20 2q-23 0 -41 -10q-28 -16 -54 -57q-9 -13 -25 -41q-23 -38 -35 -56h28zM404 664q-13 18 -35 56q-15 25 -23 37q-23 37 -45 53q-21 18 -52 18h-5q-29 -1 -41 -15q-16 -19 -9 -55
q8 -37 46 -63q46 -31 108 -31h52h4z" />
    <glyph glyph-name="uniE60A" unicode="&#xe60a;" 
d="M512 896q-138 0 -256 -69t-187 -187t-69 -256t69 -256t187 -187t256 -69t256 69t187 187t69 256t-69 256t-187 187t-256 69zM512 -43q-118 0 -216 56.5t-154.5 154.5t-56.5 216t56.5 216t154.5 154.5t216 56.5t216 -56.5t154.5 -154.5t56.5 -216t-56.5 -216
t-154.5 -154.5t-216 -56.5zM725.5 597.5q-12.5 12.5 -30 12.5t-29.5 -13l-154 -153l-154 153q-12 13 -29.5 13t-30 -12.5t-12.5 -30t13 -29.5l153 -154l-153 -154q-13 -12 -13 -29.5t12.5 -30t30 -12.5t29.5 13l154 153l154 -153q12 -13 29.5 -13t30 12.5t12.5 30t-13 29.5
l-153 154l153 154q13 12 13 29.5t-12.5 30z" />
    <glyph glyph-name="uniE60B" unicode="&#xe60b;" 
d="M512 896q-138 0 -256 -69t-187 -187t-69 -256t69 -256t187 -187t256 -69t256 69t187 187t69 256t-69 256t-187 187t-256 69zM512 -43q-118 0 -216 56.5t-154.5 154.5t-56.5 216t56.5 216t154.5 154.5t216 56.5t216 -56.5t154.5 -154.5t56.5 -216t-56.5 -216
t-154.5 -154.5t-216 -56.5zM734 589l-307 -316l-137 145q-13 13 -30 13t-29.5 -13t-12.5 -30t12 -30l171 -170q9 -9 34.5 -9t33.5 9l342 341q12 13 12 30t-12 30q-16 11 -38.5 9.5t-38.5 -9.5z" />
    <glyph glyph-name="uniE60C" unicode="&#xe60c;" 
d="M513 -126q103 0 197.5 40.5t163 108.5t109 162.5t40.5 198.5t-40.5 198.5t-109 162.5t-163 108.5t-198 40.5t-198 -40.5t-163 -108.5t-108.5 -162.5t-40 -198.5t40 -198.5t108.5 -162.5t163 -108.5t198.5 -40.5zM513 830q90 0 173 -35t142.5 -95t95 -142.5t35.5 -173.5
t-35.5 -173.5t-95 -142.5t-142.5 -95t-173.5 -35t-173 35t-142.5 95t-95.5 142.5t-35.5 173.5t35.5 173.5t95.5 142.5t142.5 95t173.5 35zM513 720q82 0 140.5 -57.5t58.5 -139.5t-58.5 -140t-141 -58t-140.5 58t-58 140t58 139.5t141 57.5zM513 382q59 0 100.5 41
t41.5 99.5t-41.5 100t-100.5 41.5t-100.5 -41.5t-41.5 -100t41.5 -99.5t100.5 -41zM513 382q118 0 201 -83t83 -200h-57q0 94 -66.5 160t-161 66t-161 -66t-66.5 -160h-57q0 117 83.5 200t201.5 83z" />
    <glyph glyph-name="uniE60D" unicode="&#xe60d;" 
d="M512 896q-104 0 -199 -40.5t-163.5 -109.5t-109 -163.5t-40.5 -198.5t40.5 -199t109 -163.5t163.5 -109t199 -40.5t199 40.5t163.5 109t109 163.5t40.5 199t-40.5 198.5t-109 163.5t-163.5 109.5t-199 40.5zM512 -45q-116 0 -215 57.5t-156.5 156.5t-57.5 215t57.5 215
t156.5 156.5t215 57.5t215 -57.5t156.5 -156.5t57.5 -215t-57.5 -215t-156.5 -156.5t-215 -57.5zM655 665l-91 -169q-37 -68 -45 -90h-2q-24 54 -136 259h-85l159 -275h-131v-60h154v-84h-154v-61h154v-122h76v122h148v61h-148v84h148v60h-127l161 275h-81zM655 665z" />
    <glyph glyph-name="uniE60E" unicode="&#xe60e;" 
d="M511.5 534q-62.5 0 -106.5 -44.5t-44 -107t44 -106.5t106.5 -44t106.5 44t44 106.5t-44 107t-106.5 44.5zM511.5 292q-37.5 0 -64 26.5t-26.5 64t26.5 64t64 26.5t64 -26.5t26.5 -64t-26.5 -64t-64 -26.5zM994 473l-60 1l-61 120l46 45q1 2 2.5 4.5t2.5 11.5t-2.5 20
t-15.5 29.5t-33 39.5t-39.5 33.5t-30 15.5t-20 3t-11.5 -3l-4 -2l-46 -46l-120 60v61q0 1 -0.5 3t-5.5 7.5t-13.5 9t-27 7t-43.5 3.5t-43.5 -3t-27 -7.5t-13.5 -9t-6 -7.5l-1 -3v-60l-120 -61l-46 46q-1 1 -4 2.5t-12 2.5t-20 -2.5t-29.5 -15.5t-39 -32.5t-33 -39t-15.5 -30
t-2.5 -20.5t2.5 -12.5t3 -3.5l45 -46l-60 -119h-60q-1 0 -3 -1t-7 -6t-9 -13.5t-7.5 -27t-3.5 -44t3 -44.5t7.5 -27.5t9 -13t7.5 -5.5h3h60l61 -90l-45 -75q-1 -1 -2.5 -3.5t-2.5 -12.5t2 -21t15 -29.5t32.5 -39.5t39 -33t30 -14.5t20.5 -2t13 2.5l3 3l44 44l121 -61l1 -59
q0 -1 0.5 -3t5 -7.5t13 -9t27.5 -7t44 -3.5t43.5 3t27 7.5t13.5 9t6 7.5v3v59l90 61l76 -45q1 -1 3.5 -2.5t12 -2.5t20.5 2.5t29.5 15.5t39.5 33t33 39.5t15.5 29.5t2.5 20.5t-3 12t-3 3.5l-45 74l61 92l60 -1q1 0 3 0.5t7.5 5.5t9 13.5t7 27t3.5 43.5t-3 43.5t-7.5 27
t-9 13.5t-7.5 6h-3zM903 354l-105 -167l61 -89l-61 -62l-91 62l-165 -106v-60h-60v60l-196 105l-59 -59l-62 59l61 90l-106 167h-60v60h59l107 195l-61 61l60 58l61 -58l196 105v61h60v-61l196 -106l60 60l59 -59l-44 -76l90 -181h61v-59h-61z" />
    <glyph glyph-name="uniE60F" unicode="&#xe60f;" horiz-adv-x="1025" 
d="M1024 498l-353 52l-159 320l-158 -320l-354 -52l256 -249l-60 -353l316 167l317 -167l-61 353zM512 142l-223 -118l43 249l-181 176l250 37l111 226l112 -226l250 -37l-181 -176l43 -249z" />
    <glyph glyph-name="uniE610" unicode="&#xe610;" 
d="M376 894h-295q-33 0 -56 -23t-23 -56v-295q0 -33 23 -56.5t56 -23.5h295q33 0 56.5 23.5t23.5 56.5v295q0 33 -23.5 56t-56.5 23zM399 557q0 -25 -17.5 -42.5t-42.5 -17.5h-221q-25 0 -42.5 17.5t-17.5 42.5v221q0 25 17.5 42.5t42.5 17.5h221q25 0 42.5 -17.5
t17.5 -42.5v-221zM944 894h-295q-33 0 -56 -23t-23 -56v-295q0 -33 23 -56.5t56 -23.5h295q33 0 56.5 23.5t23.5 56.5v295q0 33 -23.5 56t-56.5 23zM967 557q0 -25 -17.5 -42.5t-42.5 -17.5h-221q-25 0 -42.5 17.5t-17.5 42.5v221q0 25 17.5 42.5t42.5 17.5h221
q25 0 42.5 -17.5t17.5 -42.5v-221zM944 326h-295q-33 0 -56 -23t-23 -56v-295q0 -33 23 -56.5t56 -23.5h295q33 0 56.5 23.5t23.5 56.5v295q0 33 -23.5 56t-56.5 23zM967 -11q0 -25 -17.5 -42.5t-42.5 -17.5h-221q-25 0 -42.5 17.5t-17.5 42.5v221q0 25 17.5 42.5t42.5 17.5
h221q25 0 42.5 -17.5t17.5 -42.5v-221zM377 326h-297q-32 0 -55 -23t-23 -55v-297q0 -33 23 -56t55 -23h297q33 0 56 23t23 56v297q0 32 -23 55t-56 23zM399 -11q0 -25 -17.5 -42.5t-42.5 -17.5h-221q-25 0 -42.5 17.5t-17.5 42.5v221q0 25 17.5 42.5t42.5 17.5h221
q25 0 42.5 -17.5t17.5 -42.5v-221z" />
    <glyph glyph-name="uniE611" unicode="&#xe611;" 
d="M909 690l-327 186q-32 18 -70 18t-71 -18l-326 -186q-34 -19 -53 -52t-19 -71v-368q0 -38 19 -71t53 -52l326 -185q33 -19 71 -19t70 19l327 185q33 19 52.5 52t19.5 71v368q0 38 -19.5 71t-52.5 52zM548 -50q-17 -9 -36.5 -9t-36.5 9l-240 136q26 14 46 16q16 1 64 13
q16 4 27 7q58 13 77 30q13 10 12 26q0 35 -22 64q-3 6 -9 10q-35 27 -55 70.5t-20 94.5q0 80 46 136.5t111 56.5t111 -56.5t46 -136.5q0 -50 -19.5 -93.5t-54.5 -70.5q-4 -3 -6 -6q-25 -31 -26 -67q0 -16 12 -26q17 -14 77 -28q54 -13 90 -16q27 -2 56 -18zM912 199
q0 -42 -38 -64l-10 -5v1q-52 42 -116 47q-30 3 -80 15q-16 3 -29 7q1 0 1 1q47 37 72.5 94t25.5 122q0 108 -66 185t-159.5 77t-160 -77t-66.5 -185q0 -65 26 -122t71 -93q2 -3 4 -5q-14 -5 -31 -9q-10 -2 -28 -6q-42 -11 -53 -12q-54 -4 -106 -46l-20 11q-37 22 -37 64v368
q0 43 37 64l326 185q17 10 36.5 10t36.5 -10l326 -185q38 -21 38 -64v-368z" />
    <glyph glyph-name="uniE612" unicode="&#xe612;" 
d="M887 896h-750q-12 0 -22.5 -1t-33.5 -8t-39 -20t-29 -41t-13 -67v-750q0 -39 15 -67t33 -41t41.5 -20t32.5 -8t15 -1h750q39 0 67 14.5t41 33t20 42t8 32.5t1 15v750q0 39 -13 67t-29 41t-39 20t-33.5 8t-22.5 1zM956 9q0 -3 -0.5 -7.5t-4 -16.5t-10 -21t-20.5 -16.5
t-34 -7.5l-257 268l-140 -121l-211 195l-211 -195v672q0 20 6 33.5t13 20.5t18 10.5t17 4t15 0.5h750q9 0 15 -0.5t17.5 -4t18 -10.5t12.5 -20.5t6 -33.5v-750zM683 623q-57 0 -97 -40t-40 -96.5t40 -97t96.5 -40.5t96.5 40.5t40 97t-40 96.5t-96 40z" />
    <glyph glyph-name="uniE613" unicode="&#xe613;" 
d="M878 557l-320 320q-19 19 -45.5 19t-45.5 -19l-320 -320q-18 -18 -18 -45t18.5 -45.5t45 -18.5t45.5 19l211 210v-741q0 -27 18.5 -45.5t45 -18.5t45.5 18.5t19 45.5v741l210 -210q19 -19 45.5 -19t45.5 18.5t19 45.5t-19 45z" />
    <glyph glyph-name="uniE614" unicode="&#xe614;" horiz-adv-x="1025" 
d="M468 653l-447 -448q-19 -19 -19 -45t18.5 -44.5t45 -18.5t44.5 18l403 403l403 -403q18 -18 44.5 -18t45 18.5t18.5 44.5t-19 45l-447 448q-19 18 -45 18t-45 -18z" />
    <glyph glyph-name="uniE615" unicode="&#xe615;" 
d="M467 115l-447 448q-19 19 -19 45t18.5 44.5t45 18.5t44.5 -18l403 -403l403 403q18 18 44.5 18t45 -18.5t18.5 -44.5t-19 -45l-447 -448q-19 -18 -45 -18t-45 18z" />
    <glyph glyph-name="uniE616" unicode="&#xe616;" 
d="M513 894q-104 0 -199 -35t-163.5 -93.5t-109 -139.5t-40.5 -170q0 -100 52 -189.5t146 -153.5q12 -8 27 -5.5t23.5 15t5.5 27.5t-15 24q-79 53 -122.5 127t-43.5 155q0 99 59 183t160 133t219.5 49t219.5 -49t160 -133t59 -183t-59 -183t-160 -133t-219 -49q-2 0 -4 -0.5
t-3 -0.5q-13 2 -24.5 -4.5t-16.5 -18.5q-10 -29 -107 -84q20 66 4 90q-12 18 -34 18q-15 0 -26 -10.5t-11 -26.5q0 -9 5 -18q-7 -37 -38 -114q-9 -22 9 -40q10 -10 25 -10q8 0 15 3q32 15 65.5 32t81 49.5t67.5 62.5q137 2 253 60.5t183 159t67 217.5q0 89 -40.5 170
t-109 139.5t-163.5 93.5t-198 35zM317 525q-28 0 -47 -19.5t-19 -46.5t19 -46t46.5 -19t46.5 19t19 46t-19 46.5t-46 19.5zM514 525q-28 0 -47 -19.5t-19 -46.5t19 -46t46.5 -19t46.5 19t19 46t-19 46.5t-46 19.5zM711 525q-28 0 -47 -19.5t-19 -46.5t19 -46t46.5 -19
t46.5 19t19 46t-19 46.5t-46 19.5z" />
    <glyph glyph-name="uniE617" unicode="&#xe617;" horiz-adv-x="1027" 
d="M1026 579v47l-2 3q-10 31 -32.5 49t-49.5 18h-860q-30 0 -53 -16q-29 -20 -29 -52v-481q0 -31 25.5 -51t56.5 -20h860q28 0 49.5 17t32.5 40l2 5v435v6zM527 400q-15 -9 -30 0l-88 58l-291 191h788zM47 147v481q0 5 4 9l307 -201l-311 -290v1zM398 409l74 -48
q18 -12 40 -12t40 12l79 52l308 -290h-848zM672 439l297 195q6 -7 10 -16v-39v-5v-1v-424z" />
    <glyph glyph-name="uniE618" unicode="&#xe618;" 
d="M449 63h-53q-115 19 -191.5 108.5t-76.5 207.5q0 77 37 148l39 -55q22 -29 58 -23t45 42l32 112l43 155q8 28 -9.5 51t-46.5 23h-152h-116q-35 0 -51.5 -32t4.5 -61l73 -100q-84 -116 -84 -260q0 -167 108.5 -292t270.5 -151q8 -1 17 1v-1h53q26 0 44.5 18.5t18.5 44.5v1
q0 26 -18.5 44.5t-44.5 18.5zM1013 29l-73 100q84 116 84 260q0 167 -108.5 292t-270.5 151q-8 1 -17 -1v1h-53q-26 0 -44.5 -18.5t-18.5 -44.5v-1q0 -26 18.5 -44.5t44.5 -18.5h53q115 -19 191.5 -108.5t76.5 -207.5q0 -77 -37 -148l-39 55q-22 29 -58 23t-45 -42l-32 -112
l-43 -155q-8 -28 9.5 -51t46.5 -23h152h116q35 0 51.5 32t-4.5 61z" />
    <glyph glyph-name="uniE619" unicode="&#xe619;" horiz-adv-x="1025" 
d="M1025 397q0 -7 -2 -14l-92 -407q-2 -7 -6 -14q-16 -31 -45 -49q-31 -20 -68 -20h-592h-6h-7l-158 1q-3 -1 -6 -1q-18 0 -30.5 12.5t-12.5 30.5v512q0 18 12.5 30.5t30.5 12.5q2 0 5 -1l142 1v1q98 7 166.5 78t70.5 170v11q0 51 36 87.5t88 36.5q44 0 77.5 -27t43.5 -69
q11 -49 11 -98q0 -76 -25 -147h239q2 0 6 -1q31 -1 58.5 -16.5t44.5 -43.5q22 -35 19 -76zM85 -21h86v426h-85zM934 429q-13 20 -37 19v0h-302q-17 0 -29.5 12.5t-12.5 30.5q0 10 4 19q26 49 36 103h1q0 3 1 8t2.5 22.5t1.5 37.5q0 15 -1.5 32t-3.5 26l-1 9v0v1
q0 17 -12 28.5t-28.5 11.5t-28 -11.5t-11.5 -28.5v-2h-1q1 -34 -6 -68q-3 -19 -10 -39q-27 -83 -91 -143t-148 -81l-1 -437h556q3 0 6 -1q9 1 16 6q11 7 15 18h1l88 392q6 19 -4 35z" />
    <glyph glyph-name="uniE61A" unicode="&#xe61a;" 
d="M588 224q-76 -61 -104 -77q-32 -19 -67 -30q-30 -10 -53 -12q-23 -3 -38 -3q-2 -1 -4 -1h-12q-39 0 -73.5 9.5t-60.5 27.5t-41 45.5t-15 64.5q0 32 16.5 57.5t43 43.5t58.5 27.5t64 7.5q31 -1 60.5 -7t56.5 -15t51 -19t46 -19q8 -4 18 -7q9 -4 19 -7q21 26 35 51.5
t23.5 46.5t14.5 35.5t6 20.5h-311v34h147v80h-204v34h204v65q0 6 7.5 10t16.5 6q11 2 24 2h55v-83h211v-34h-211v-80h167l1 1v-1h-1q-5 -32 -17 -67q-10 -31 -29.5 -70.5t-51.5 -80.5q18 -9 50 -23t121.5 -43t166.5 -41q45 100 45 210q0 104 -40.5 198.5t-109 163t-163 109
t-198.5 40.5t-198.5 -40.5t-163 -109t-109 -163t-40.5 -198.5t40.5 -198.5t109 -163t163 -109t198.5 -40.5q129 0 240 60t181 162q-65 14 -141.5 43.5t-203.5 86.5v0zM186 247q0 -25 10.5 -43.5t24 -28t32 -15t28.5 -7t18 -1.5q59 -2 123 36q7 4 15 10l16 12q8 6 15.5 12.5
t14.5 13t12 11t9 7.5l4 4q3 2 5 5q-20 11 -40 21q-92 44 -142 49q-40 5 -70.5 -4t-45 -25t-21.5 -30.5t-8 -26.5v0z" />
    <glyph glyph-name="uniE61B" unicode="&#xe61b;" 
d="M558 -86q-3 -28 -25.5 -38t-44 1.5t-23.5 36.5v642l-283 -274q-16 -14 -34 -12.5t-28 14t-13 29t10 32.5q129 125 357 345q16 17 37.5 17.5t37.5 -17.5q354 -342 358 -347q12 -14 10 -31t-13 -27.5t-26.5 -14.5t-32.5 9q-5 4 -76.5 73.5t-140.5 136.5l-70 67v-642z
M116 893h787v-90h-787v90z" />
    <glyph glyph-name="uniE61C" unicode="&#xe61c;" 
d="M790 -89q-48 0 -90.5 18t-74 50t-50 74.5t-18.5 90t18.5 90t50 73.5t74 49.5t90 18.5t90 -18.5t74 -49.5t49.5 -73.5t18 -90t-18 -90t-49.5 -74.5t-74 -50t-89.5 -18zM904 181h-84v78q0 16 -10 27.5t-26 11.5t-25 -11.5t-9 -27.5v-78h-74q-15 0 -26.5 -11.5t-11.5 -27.5
t11.5 -23.5t26.5 -7.5h74v-81q0 -16 9 -27t25 -11t26 11t10 27v81h84v-3q16 0 27.5 9t11.5 25t-11.5 27.5t-27.5 11.5zM624 463q-4 -18 -9 -33q-4 -12 -11 -25t-15 -20q-10 -8 -14 -17t-7 -18.5t-6 -20t-11 -20.5q-26 -34 -39 -66t-18.5 -61t-3 -58t9.5 -56q4 -21 13 -43
t26.5 -45t45 -45.5t68.5 -42.5q-28 -6 -64 -10q-30 -4 -75 -7q-45 -2 -103 -2q-29 0 -68 2t-80.5 5.5t-82 8t-73.5 9.5t-56.5 11t-29.5 10q-10 9 -15.5 50.5t3.5 108.5q6 37 30 57t57 31t68.5 21t63.5 27q21 13 32.5 25t16 24.5t4.5 26t-1 29.5q-2 24 -16.5 37.5t-30.5 27.5
q-9 7 -15.5 20.5t-11.5 25.5q-6 15 -9 33q-8 2 -15 7q-5 4 -12 13.5t-13 27.5q-5 17 -3.5 31.5t6.5 24.5q4 13 12 22q0 38 5 77q4 33 13.5 70.5t31.5 66.5q20 28 43.5 46.5t48.5 28.5t50 14t47 4q30 0 57 -7t50.5 -18t41.5 -25.5t29 -28.5q26 -33 38 -73t18 -75q5 -40 4 -81
q7 -6 12 -14q4 -7 6.5 -18t-0.5 -28q-2 -22 -8.5 -34.5t-14.5 -19.5q-9 -8 -20 -11z" />
    <glyph glyph-name="uniE61D" unicode="&#xe61d;" 
d="M1024 384q0 -104 -40.5 -199t-109 -163.5t-163.5 -109t-199 -40.5t-199 40.5t-163.5 109t-109 163.5t-40.5 199t40.5 199t109 163.5t163.5 109t199 40.5t199 -40.5t163.5 -109t109 -163.5t40.5 -199zM797 518l-49 48l-297 -297l-174 174l-48 -49l222 -222z" />
    <glyph glyph-name="uniE61E" unicode="&#xe61e;" 
d="M1024 805l-91 90l-421 -421l-421 421l-91 -90l422 -421l-422 -422l91 -90l421 421l421 -421l91 90l-422 422z" />
    <glyph glyph-name="uniE61F" unicode="&#xe61f;" 
d="M806 504h-664q-19 0 -33 14t-14 34v19q0 19 14 33t33 14h664q20 0 34 -14t14 -33v-19q0 -20 -14 -34t-34 -14zM806 182h-588q-19 0 -33 14t-14 33v19q0 20 14 34t33 14h588q20 0 34 -14t14 -34v-19q0 -19 -14 -33t-34 -14zM244 193l-18 -5q-19 -5 -36 4.5t-23 28.5
l-103 385q-5 19 5 36t29 22l18 5q19 5 36 -5t22 -29l103 -384q5 -19 -4.5 -36t-28.5 -22zM806 182h-19q-19 0 -33 14t-14 33v436q0 20 14 34t33 14h19q20 0 34 -14t14 -34v-436q0 -19 -14 -33t-34 -14zM304 -27q-32 0 -54 22.5t-22 53.5t22 53.5t53.5 22.5t54 -22.5
t22.5 -53.5t-22.5 -53.5t-53.5 -22.5zM702 -27q-32 0 -54 22.5t-22 53.5t22 53.5t53.5 22.5t54 -22.5t22.5 -53.5t-22.5 -53.5t-53.5 -22.5zM938 697l-113 -66q-16 -10 -35 -5t-28 22l-9 16q-10 17 -5 36t22 29l112 66q17 9 35.5 4t27.5 -22l10 -16q9 -17 4 -35.5t-21 -28.5
z" />
    <glyph glyph-name="uniE620" unicode="&#xe620;" 
d="M999 18l-245 245q-1 1 -9 7q66 101 66 221q0 110 -54.5 203.5t-148 147.5t-203.5 54t-203 -54t-147.5 -147.5t-54.5 -203.5t54.5 -203.5t147.5 -148t203 -54.5q120 0 221 66q5 -7 7 -9l245 -245q25 -25 60.5 -25t60.5 25t25 60.5t-25 60.5zM405 213q-114 0 -195.5 81.5
t-81.5 196t81.5 196t196 81.5t196 -81.5t81.5 -196t-81.5 -196t-196.5 -81.5z" />
    <glyph glyph-name="uniE621" unicode="&#xe621;" horiz-adv-x="1026" 
d="M459 -20q-92 0 -175.5 34.5t-148.5 99.5q-88 88 -119 206t0 236t119 206q65 65 148.5 99.5t175.5 34.5t175.5 -34.5t148.5 -99.5t99.5 -148.5t34.5 -175.5t-34.5 -175.5t-99.5 -148.5t-148.5 -99.5t-175.5 -34.5zM459 819q-76 0 -145.5 -29t-123.5 -83
q-55 -54 -83.5 -125.5t-28.5 -143.5t28.5 -143.5t83.5 -125.5q54 -54 123.5 -83t145.5 -29t145.5 29t123.5 83t83 123.5t29 145.5t-29 145.5t-83 123.5t-123.5 83t-145.5 29zM987 -128q-16 0 -28 11l-160 160q-11 12 -11 27.5t11.5 27t27.5 11.5t27 -11l160 -160
q11 -12 11 -27.5t-11 -27t-27 -11.5z" />
    <glyph glyph-name="uniE622" unicode="&#xe622;" horiz-adv-x="1189" 
d="M1005 136h-554q-51 0 -81 30.5t-39 65.5l-158 528v1v1q-9 26 -43 26h-76q-22 0 -38 15.5t-16 38t16 38.5t38 16h76q33 0 61 -11t45 -28t27 -34t14 -33l159 -529q1 -3 1 -4q3 -12 14 -12h552q2 5 3 8l71 401h-595q-23 0 -39 16t-16 38.5t16 38.5t39 16h622q41 0 65 -30
q27 -33 17 -84l-73 -414q-7 -40 -35.5 -69.5t-72.5 -29.5zM555 -50zM477 -49.5q0 32.5 23 55.5t55.5 23t55.5 -23t23 -55.5t-23 -55.5t-55.5 -23t-55.5 23t-23 55.5zM881 -50zM802 -49.5q0 32.5 23 55.5t55.5 23t55.5 -23t23 -55.5t-23 -55.5t-55.5 -23t-55.5 23t-23 55.5z
" />
    <glyph glyph-name="uniE623" unicode="&#xe623;" 
d="M683 503h-132v130q-1 4 -3 9.5t-12.5 15.5t-26.5 10q-17 0 -28.5 -9t-14.5 -18l-2 -8v-130h-132q-1 0 -3.5 -0.5t-8 -3.5t-10 -7.5t-8 -12.5t-3.5 -19q0 -16 8 -27t17 -14l8 -2h132v-130q1 -4 3.5 -10t14 -16t27.5 -10t26.5 9t13.5 18l2 9v130h132q4 1 9.5 3.5t15.5 13.5
t10 26q0 17 -9 27.5t-17 13.5zM745 201q55 49 86 116t31 142q0 94 -47.5 174t-128.5 126.5t-176.5 46.5t-176.5 -46.5t-128.5 -126.5t-47.5 -174t47.5 -174t128.5 -126.5t177 -46.5q55 0 108 17l76 -123q2 -1 4.5 -4t12 -8.5t20 -8.5t26.5 -1t33 11q3 1 7 4.5t13 14t14 21.5
t4 27.5t-11 33.5zM510.5 159q-126.5 0 -215.5 88t-89 212.5t89 212.5t215.5 88t215.5 -88t89 -212.5t-89 -212.5t-215.5 -88z" />
    <glyph glyph-name="uniE624" unicode="&#xe624;" 
d="M245 653l109 104l454 -449l-454 -451l-109 105l353 346z" />
    <glyph glyph-name="uniE625" unicode="&#xe625;" 
d="M511.5 33q-95.5 0 -176.5 47t-128 128t-47 176.5t47 176.5t128 128t176.5 47t176.5 -47t128 -128t47 -176.5t-47 -176.5t-128 -128t-176.5 -47zM511.5 683q-123.5 0 -211 -87.5t-87.5 -211t87.5 -211t211 -87.5t211 87.5t87.5 211t-87.5 211t-211 87.5zM620 439l-151 150
l-54 -54l151 -150l-151 -151l54 -54l205 205z" />
    <glyph glyph-name="uniE626" unicode="&#xe626;" 
d="M595 384l-251 -243q-12 -12 -12 -28t11.5 -27t28 -11t28.5 11l276 267l2 1l2 2q10 10 11.5 24t-6.5 25q-3 4 -5 6q-279 271 -280 271q-11 11 -28 11t-28.5 -11t-11.5 -27t12 -28z" />
    <glyph glyph-name="uniE627" unicode="&#xe627;" 
d="M767.5 352q-79.5 0 -135.5 -56t-56 -135.5t56 -136t135.5 -56.5t136 56.5t56.5 136t-56.5 135.5t-136 56zM874 209l-108 -120q-10 -11 -24 -11.5t-24 9.5l-56 53q-6 6 -6 14.5t5.5 14.5t14 6t14.5 -6l51 -48l103 115q6 6 14.5 6.5t14.5 -5t6.5 -14t-5.5 -14.5zM495 275
q7 -7 17 -7t17 7l183 182q7 7 7 17t-7 17t-17 7t-17 -7l-142 -141v332q0 10 -7 17t-17 7t-17 -7t-7 -17v-332l-142 141q-7 7 -17 7t-17 -7t-7 -17t7 -17zM537 110h-234q-22 0 -41.5 16t-23.5 38l-15 75q-2 10 -10 15.5t-18 3.5t-15.5 -10t-3.5 -18l15 -76q7 -38 40 -65
t72 -27h234q10 0 17 7t7 17t-7 17t-17 7z" />
    <glyph glyph-name="uniE628" unicode="&#xe628;" 
d="M512 812q-104 0 -199 -40.5t-163.5 -109t-109 -163.5t-40.5 -199t40.5 -199t109 -163.5t163.5 -109t199 -40.5t199 40.5t163.5 109t109 163.5t40.5 199t-40.5 199t-109 163.5t-163.5 109t-199 40.5zM198 347v5v7q3 38 15 75q25 77 87.5 131t145.5 68q85 14 163 -19
t127 -101v15q-1 8 8 8l49 1q8 0 8 -8q-1 -66 -3 -104l-3 -27q-8 -28 -39 -24l-142 43q-8 2 -6 10l15 47q3 8 10 5l52 -16q-36 56 -98 84t-130 17q-69 -12 -119 -60t-65 -114q-3 -17 -4 -39q0 -15 -10.5 -25.5t-25.5 -10.5q-13 1 -23 9.5t-12 21.5v1zM824 212
q-16 -101 -92.5 -171.5t-180.5 -77.5q-87 -5 -161 36t-116 114l-1 -16q-1 -8 -9 -7l-49 4q-8 0 -7 9q7 65 13 103l6 27q11 27 41 19q5 -1 39.5 -15.5t66 -27.5t32.5 -14q7 -3 4 -11l-19 -44q-4 -8 -12 -5l-49 22q30 -60 88.5 -94t127.5 -30q70 5 124.5 48t76.5 107
q5 18 8 39q1 14 13 23.5t26 7.5q14 -1 22.5 -11t9.5 -23v-1q0 -6 -2 -11z" />
    <glyph glyph-name="uniE629" unicode="&#xe629;" 
d="M923 650h-821q-41 0 -69.5 -29t-28.5 -70v-498q0 -41 28.5 -69.5t69.5 -28.5h821q40 0 69 28.5t29 69.5v498q0 41 -29 70t-69 29zM102 609h821q23 0 40 -17t17 -41v-57h-935v57q0 24 16.5 41t40.5 17zM923 -4h-821q-24 0 -40.5 16.5t-16.5 40.5v315h935v-315
q0 -24 -17 -40.5t-40 -16.5z" />
    <glyph glyph-name="uniE62A" unicode="&#xe62a;" 
d="M913 565h-102q21 43 17 93q-5 65 -43 94q-27 23 -71 23q-41 0 -83 -20.5t-76 -56.5q-15 -14 -43 -57q-19 34 -43 57q-36 36 -78 56.5t-81 20.5t-71 -23q-38 -29 -43 -94q-4 -47 17 -93h-102q-41 0 -70.5 -30t-29.5 -73v-45q0 -39 26 -68.5t63 -34.5v-330q0 -70 48.5 -120
t118.5 -50h492q69 0 118.5 50t49.5 120v333q39 4 63.5 33t24.5 69v46q0 41 -29.5 70.5t-72.5 29.5zM603 650q27 29 58 43t56 14q20 0 28 -9q14 -13 17 -42q0 -54 -28 -89h-179q12 47 48 83zM262 656q0 31 17 42q8 9 28 9q57 0 114 -57q36 -36 48 -83h-179q-28 38 -28 89z
M77 417v45q0 15 9.5 24.5t24.5 9.5h367v-114h-367q-15 0 -24.5 10.5t-9.5 24.5zM165 -16v330h313v-421q0 -8 3 -11h-214q-42 0 -72 30.5t-30 71.5zM859 -16q0 -42 -29.5 -72t-70.5 -30h-213q0 1 1.5 5.5t1.5 5.5v421h313v-330h-3zM947 417q0 -15 -9.5 -25t-24.5 -10h-367
v114h367q13 0 23.5 -9.5t10.5 -24.5v-45zM947 417z" />
    <glyph glyph-name="uniE62B" unicode="&#xe62b;" horiz-adv-x="1622" 
d="M119 384q0 51 18.5 106t54 106t82.5 91.5t109 65t129 24.5h597v-205l316 324h-410h-503q-138 0 -256 -69t-187 -187t-69 -256q0 -99 39 -192t106 -166l85 85q-58 52 -84.5 128t-26.5 145zM1502 375q0 -51 -17 -105.5t-50.5 -106t-79.5 -91.5t-110 -64.5t-136 -24.5h-597
v205l-307 -316h409h495q104 0 197.5 40.5t160.5 108.5t106.5 161t39.5 193q0 99 -39.5 192t-105.5 167l-86 -85q50 -43 85 -116.5t35 -157.5z" />
    <glyph glyph-name="uniE62C" unicode="&#xe62c;" 
d="M710 767q91 -20 88 -81q-2 -53 -91.5 -109t-208.5 -80q11 79 35.5 132t51 58t42.5 -15h1v-1l36 10q-28 61 -65 94.5t-78 33.5q-70 0 -124 -91.5t-71 -231.5q-61 6 -96.5 28.5t-34.5 55.5q1 40 47.5 81.5t119.5 72.5l-10 36q-126 -49 -206.5 -122t-80.5 -145
q0 -65 70.5 -106.5t185.5 -47.5q6 -106 33.5 -193t71.5 -137.5t95 -50.5q70 0 124 91.5t71 232.5l-63 -16q-10 -76 -31 -122.5t-46 -46.5q-33 0 -57 72.5t-29 180.5q12 2 25 4q120 23 222.5 73.5t161 114.5t56.5 125q-2 63 -74 102.5t-185 46.5z" />
    <glyph glyph-name="uniE62D" unicode="&#xe62d;" 
d="M260 192h251q27 0 46 19t19 45v252q0 27 -19 45.5t-46 18.5h-251q-27 0 -46 -18.5t-19 -45.5v-252q0 -26 19 -45t46 -19zM240 508q0 8 6 13.5t14 5.5h251q8 0 14 -5.5t6 -13.5v-252q0 -8 -6 -13.5t-14 -5.5h-251q-8 0 -14 5.5t-6 13.5v252zM427 261q9 0 16 6.5t7 15.5v17
h25q9 0 15.5 6.5t6.5 16t-6.5 16t-15.5 6.5h-25v136q0 10 -7 16.5t-16 6.5t-15.5 -6.5t-6.5 -16.5v-198q0 -9 6.5 -15.5t15.5 -6.5zM295 404h25v-121q0 -9 6.5 -15.5t15.5 -6.5t16 6.5t7 15.5v198q0 10 -7 16.5t-16 6.5t-15.5 -6.5t-6.5 -16.5v-32h-25q-10 0 -16.5 -6.5
t-6.5 -16t6.5 -16t16.5 -6.5zM944 518l-179 169q-7 6 -15 6h-550q-44 0 -79 -27q-34 -26 -46 -67q-2 -9 2.5 -17t13.5 -11t17 2t11 14q7 27 30 44t51 17h541l165 -156v-291q0 -35 -25 -60t-60 -25h-621q-35 0 -60 25t-25 60v319q0 9 -6.5 15.5t-15.5 6.5t-16 -6.5t-7 -15.5
v-319q0 -54 38.5 -92t91.5 -38h621q54 0 92 38t38 92v301q0 10 -7 16z" />
    <glyph glyph-name="uniE62E" unicode="&#xe62e;" 
d="M189 617q105 105 252 126q89 13 175 -9t157.5 -75.5t117 -130t57.5 -164.5q18 -121 -27 -231.5t-138.5 -184.5t-213.5 -92q-159 -22 -296 61q-12 7 -15 20t4 24t20 14t24 -3q117 -72 254 -52q103 15 183 78.5t118.5 158t23.5 198.5q-11 76 -49.5 141t-100 111t-135 65
t-150.5 8q-103 -15 -183 -78.5t-118.5 -158.5t-23.5 -198q12 -83 57 -152q7 -11 4 -24t-14 -20t-24 -4.5t-20 13.5q-53 82 -67 178q-12 89 10 175t75 157q20 27 43 49v0zM461 422zM333 114v342h-54q-20 0 -20 22q0 18 20 20h89q16 0 16 -13v-371q-2 -22 -26.5 -22t-24.5 22z
M569 456l-15 -112q22 11 53 14q94 -12 105 -125q-7 -139 -134 -141q-94 2 -114 65q0 18 18 20q7 0 25 -16q35 -27 73 -27q72 5 78 90q-4 82 -71 87q-24 0 -54 -11q-11 -5 -15 -5q-18 0 -18 16q0 7 4 33l23 141q-2 13 18 13h140q20 -2 23 -20q-3 -22 -23 -22h-116z" />
    <glyph glyph-name="uniE62F" unicode="&#xe62f;" horiz-adv-x="1025" 
d="M976 153l-230 230q22 62 22 129q0 104 -51.5 192.5t-140 140t-192.5 51.5q-79 0 -152 -32l-23 -9v-1q-3 -1 -6 -4q-6 -5 -6 -13.5t6 -13.5l215 -215l-129 -130l-211 211h-1q-7 7 -16.5 7t-16.5 -7q-3 -3 -5 -8l-7 -17q-32 -73 -32 -152q0 -104 51.5 -192.5t140 -140
t192.5 -51.5q67 0 129 22l230 -230q48 -48 117 -48q68 0 116 48t48 116.5t-48 116.5zM924 -28q-27 -27 -64 -27q-38 0 -65 27l-265 265l-23 -10q-59 -26 -123 -26q-128 0 -219.5 91t-91.5 220q0 36 8 70l194 -193q13 -11 27 -1l203 204q14 14 2 30l-193 193q34 8 70 8
q129 0 220 -91t91 -220q0 -64 -26 -123l-10 -23l265 -265q27 -27 27 -64.5t-27 -64.5z" />
    <glyph glyph-name="uniE630" unicode="&#xe630;" 
d="M512 738q-91 0 -174.5 -36t-143.5 -96t-96 -143.5t-36 -174.5t36 -174.5t96 -143.5t143.5 -96t174.5 -36t174.5 36t143.5 96t96 143.5t36 174.5t-36 174.5t-96 143.5t-143.5 96t-174.5 36zM512 -91q-103 0 -190.5 50.5t-138 138t-50.5 190.5t50.5 190.5t138 138
t190.5 50.5t190.5 -50.5t138 -138t50.5 -190.5t-50.5 -190.5t-138 -138t-190.5 -50.5zM737 316h-349l68 72l-38 41l-131 -141l131 -141l38 41l-68 72h349v56z" />
    <glyph glyph-name="uniE631" unicode="&#xe631;" 
d="M512 -118q-101 0 -193 39.5t-158.5 107t-105.5 160.5t-39 195.5t39 195.5t105.5 160.5t158.5 107.5t193 40t193 -40t158.5 -107.5t106 -160.5t39.5 -195.5t-39.5 -195.5t-106 -160.5t-158.5 -107t-193 -39.5zM512.5 793q-109.5 0 -202.5 -54.5t-147 -148.5t-54 -205
t54 -205.5t147 -149t202.5 -54.5t202.5 54.5t147 149t54 205.5t-54 205t-147 148.5t-202.5 54.5zM714 337h-282l65 -59q15 -14 15 -35q0 -19 -13.5 -33t-32.5 -14q-18 0 -31 12l-155 142q-16 14 -16 34.5t16 35.5l155 141q13 12 31 12q19 0 32.5 -13.5t13.5 -33.5
q0 -21 -15 -35l-65 -59h282q19 0 33 -14t14 -33.5t-14 -33.5t-33 -14z" />
    <glyph glyph-name="uniE632" unicode="&#xe632;" 
d="M511.5 806q21.5 0 61.5 -23l254 -146q39 -23 49.5 -41.5t10.5 -64.5v-293q0 -45 -10.5 -63.5t-49.5 -41.5l-254 -147q-39 -22 -61 -22t-61 23l-254 146q-39 23 -49.5 41.5t-10.5 63.5v293q0 46 10.5 64.5t49.5 41.5l254 146q39 23 60.5 23zM512 837q-30 0 -76 -27
l-254 -146q-46 -27 -61 -53t-15 -80v-293q0 -53 15 -79t61 -53l254 -146q46 -27 76 -27t76 27l254 146q46 27 61 53t15 79v293q0 54 -15 80t-61 53l-254 146q-46 27 -76 27zM346 618h354v-47q-26 -27 -62 -73t-70.5 -110t-60 -145t-29.5 -179h-54q5 72 19 135
q15 63 42 123.5t67.5 121.5t98.5 127h-305v47zM346 618z" />
    <glyph glyph-name="uniE633" unicode="&#xe633;" 
d="M512 -128q104 0 199 40.5t163.5 109t109 163.5t40.5 199t-40.5 199t-109 163.5t-163.5 109t-199 40.5t-199 -40.5t-163.5 -109t-109 -163.5t-40.5 -199t40.5 -199t109 -163.5t163.5 -109t199 -40.5zM512 855q96 0 183 -37.5t150 -100.5t100.5 -150t37.5 -183t-37.5 -183
t-100.5 -150t-150 -100.5t-183 -37.5t-183 37.5t-150 100.5t-100.5 150t-37.5 183t37.5 183t100.5 150t150 100.5t183 37.5zM512 855zM747 363q9 0 15 6t6 15t-6 15t-15 6h-420l152 155q6 6 6 15t-6 15t-14.5 6t-15.5 -6l-187 -191q-3 -3 -4.5 -7t-1.5 -8t1.5 -8t4.5 -7
l187 -191q7 -6 15.5 -6t14.5 6t6 15t-6 15l-152 155h420zM746 363z" />
    <glyph glyph-name="uniE634" unicode="&#xe634;" horiz-adv-x="1025" 
d="M512 -128q104 0 199 40.5t163.5 109t109 163.5t40.5 199t-40.5 199t-109 163.5t-163.5 109t-199 40.5t-199 -40.5t-163.5 -109t-109 -163.5t-40.5 -199t40.5 -199t109 -163.5t163.5 -109t199 -40.5zM512 855q96 0 183 -37.5t150 -100.5t100.5 -150t37.5 -183t-37.5 -183
t-100.5 -150t-150 -100.5t-183 -37.5t-183 37.5t-150 100.5t-100.5 150t-37.5 183t37.5 183t100.5 150t150 100.5t183 37.5zM512 855zM277 363h420l-152 -155q-6 -6 -6 -15t6 -15t14.5 -6t15.5 6l187 191q3 3 4.5 7t1.5 8t-1.5 8t-4.5 7l-187 191q-7 6 -15.5 6t-14.5 -6
t-6 -15t6 -15l152 -155h-420q-9 0 -15 -6t-6 -15t6 -15t15 -6zM278 363z" />
    <glyph glyph-name="uniE635" unicode="&#xe635;" 
d="M878 688l-23 -23q105 -121 105 -281q0 -162 -107 -283l23 -23q56 62 86.5 141t30.5 165q0 173 -115 304zM811 59q-120 -103 -278 -103q-160 0 -281 105l-23 -23q130 -114 304 -114q171 0 301 112zM250 705q121 107 283 107q159 0 280 -105l23 23q-130 114 -303 114
q-87 0 -165.5 -30.5t-140.5 -85.5zM210 104q-105 120 -105 280q0 158 103 278l-23 23q-112 -129 -112 -301q0 -173 114 -303zM409 579h248v-31q-5 -8 -13.5 -22.5t-30.5 -57.5t-39.5 -84.5t-34.5 -96t-22 -98.5h-51q0 5 1.5 15t10.5 43.5t22 70.5t39.5 96t61.5 120h-192v45z
" />
    <glyph glyph-name="uniE636" unicode="&#xe636;" 
d="M512 -128h-1q-212 2 -361 151q-150 150 -150 361q0 213 151 362q148 150 361 150q211 0 362 -150q150 -149 150 -362q0 -211 -150 -362q-151 -149 -362 -150v0zM512 836q-187 0 -319 -133q-133 -131 -133 -318t133 -320q131 -132 319 -133q186 1 319 133
q133 133 133 319.5t-133 318.5q-133 133 -319 133zM512 836zM404 628h-112q-25 -3 -25 -26q0 -28 25 -28h67v-430q0 -28 31 -28t34 28v467q0 17 -20 17zM404 628zM647 450q-39 -3 -67 -17l20 141h145q26 0 28 28q-2 23 -28 26h-176q-25 0 -22 -17l-28 -178q-6 -33 -6 -42
q0 -19 23 -19q5 0 19 5q37 14 67 14q84 -5 90 -110q-8 -106 -98 -112q-48 0 -92 34q-23 19 -31 19q-23 -2 -23 -25q26 -79 143 -81q160 2 168 177q-14 143 -132 157zM647 450z" />
    <glyph glyph-name="uniE637" unicode="&#xe637;" 
d="M968 572v-1v1l-80 -165l85 9q9 -107 -30 -209q-34 -89 -100 -157q-64 -66 -148 -103.5t-175 -39.5q-95 -4 -184.5 30.5t-157.5 100.5q-66 64 -103 148t-40 175q-3 95 31.5 184t100.5 158q63 65 147 102.5t176 40.5q95 3 184 -32q81 -31 145 -88l22 25q-68 61 -155 95
q-96 37 -197 33q-98 -3 -188 -43t-158 -110q-71 -73 -108 -168.5t-33 -197.5q3 -98 43 -188t110 -158q73 -70 168.5 -107t197.5 -34q98 3 188 43t158 111q70 73 107 168q36 92 34.5 189t-40.5 188zM968 572zM498 154q17 194 154 372v66h-321v-74h224q-127 -172 -152 -364h95
zM498 154z" />
    <glyph glyph-name="uniE638" unicode="&#xe638;" 
d="M392 350h376v68h-376l142 136h-100l-178 -170l178 -170h100zM1015 384q0 102 -39.5 195.5t-107 161t-161 107t-195.5 39.5t-195.5 -39.5t-161 -107t-107 -161t-39.5 -195.5t39.5 -195.5t107 -161t161 -107t195.5 -39.5t195.5 39.5t161 107t107 161t39.5 195.5zM40 384
q0 96 37.5 183.5t100.5 150.5t150.5 100.5t183.5 37.5t183.5 -37.5t150.5 -100.5t100.5 -150.5t37.5 -183.5t-37.5 -183.5t-100.5 -150.5t-150.5 -100.5t-183.5 -37.5t-183.5 37.5t-150.5 100.5t-100.5 150.5t-37.5 183.5z" />
    <glyph glyph-name="uniE639" unicode="&#xe639;" 
d="M521.5 354.5q-17.5 -41.5 -31 -84.5t-21.5 -90l-2 -12h47l1 9q8 46 21 88q13 43 30.5 84.5t38.5 83.5q22 42 47 88l1 3v21h-239v-41h181q-18 -34 -35 -67q-21 -41 -38.5 -82.5zM848.5 634q-10.5 -7 -13 -19.5t4.5 -22.5q63 -97 63 -212q0 -77 -29.5 -147.5t-84 -125.5
t-125 -84t-147.5 -29q-102 0 -191 50q-85 48 -137 132l-1 1q-63 96 -63 211q0 78 29.5 148.5t84 125t125 83.5t147.5 29q74 0 142 -26q39 -16 75 -40q10 -7 22.5 -4.5t19.5 13t4.5 23t-12.5 19.5q-41 28 -87 46q-78 31 -164 31q-91 0 -174 -35q-80 -34 -142 -96t-96 -143
q-35 -83 -35 -174q0 -133 73 -245q60 -96 159 -153q102 -58 221 -58q91 0 174 36q80 33 142 95t96 143q35 83 35 174q0 134 -73 245q-7 11 -19.5 13.5t-23 -4.5z" />
    <glyph glyph-name="uniE63A" unicode="&#xe63a;" 
d="M364 423q-20 -18 -20 -44t21 -44l309 -271q7 -6 15.5 -5.5t14.5 7.5t5.5 15.5t-7.5 14.5l-309 271q-14 12 -1 24l310 281q7 6 7.5 15t-5.5 15.5t-15 7t-15 -5.5z" />
    <glyph glyph-name="uniE63B" unicode="&#xe63b;" 
d="M642 391q14 -12 0 -24l-309 -271q-7 -6 -7.5 -14.5t5 -15.5t14.5 -7.5t16 5.5l309 271q21 18 21 44t-20 44l-310 281q-7 6 -15.5 5.5t-14.5 -7t-5.5 -15.5t6.5 -15z" />
    <glyph glyph-name="uniE63C" unicode="&#xe63c;" 
d="M404 612l-29 -29l217 -199l-217 -199l29 -29l245 228zM404 612z" />
    <glyph glyph-name="uniE63D" unicode="&#xe63d;" 
d="M375 384l245 -228l29 29l-217 199l217 199l-29 29zM620 612z" />
    <glyph glyph-name="uniE63E" unicode="&#xe63e;" 
d="M926 384q0 113 -55.5 208.5t-151 150.5t-207.5 55t-207.5 -55.5t-151 -151t-55.5 -207.5t55.5 -207.5t151 -151t207.5 -55.5t207.5 55t151 150.5t55.5 208.5zM489 238l-206 206q-9 9 -9 22.5t9 22.5t22 9t23 -9l184 -184l182 183q9 9 22 9t22 -9q9 -10 9 -23t-9 -21
l-204 -206q-9 -9 -23 -9q-13 0 -22 9z" />
    <glyph glyph-name="uniE63F" unicode="&#xe63f;" 
d="M98 384q0 -113 55.5 -208.5t151 -150.5t207.5 -55t207.5 55.5t151 151t55.5 207.5t-55.5 207.5t-151 151t-207.5 55.5t-207.5 -55t-151 -150.5t-55.5 -208.5zM535 530l206 -206q9 -9 9 -22.5t-9 -22.5t-22 -9t-23 9l-184 184l-182 -183q-9 -9 -22 -9t-22 9q-9 10 -9 23
t9 21l204 206q9 9 23 9q13 0 22 -9z" />
    <glyph glyph-name="uniE640" unicode="&#xe640;" 
d="M512 -30q113 0 208.5 55.5t150.5 151t55 207.5t-55.5 207.5t-151 151t-207.5 55.5t-207.5 -55.5t-151 -151t-55.5 -207.5t55 -207.5t150.5 -151t208.5 -55.5zM366 407l206 206q9 9 22.5 9t22.5 -9t9 -22t-9 -23l-184 -184l183 -182q9 -9 9 -22t-9 -22q-10 -9 -23 -9
t-21 9l-206 204q-9 9 -9 23q0 13 9 22z" />
    <glyph glyph-name="uniE641" unicode="&#xe641;" 
d="M512 798q-113 0 -208.5 -55.5t-150.5 -151t-55 -207.5t55.5 -207.5t151 -151t207.5 -55.5t207.5 55.5t151 151t55.5 207.5t-55 207.5t-150.5 151t-208.5 55.5zM658 361l-206 -206q-9 -9 -22.5 -9t-22.5 9t-9 22t9 23l184 184l-183 182q-9 9 -9 22t9 22q10 9 23 9t21 -9
l206 -204q9 -9 9 -23q0 -13 -9 -22z" />
    <glyph glyph-name="uniE642" unicode="&#xe642;" 
d="M822 674h-617q-56 0 -97 -40t-41 -96v-357q0 -93 130 -101v-154l241 154h384q61 0 98 24t37 77v357q0 56 -39.5 96t-95.5 40zM914 181q0 -35 -23.5 -46.5t-68.5 -11.5h-401l-181 -97v97h-35q-46 0 -72.5 11.5t-26.5 46.5v357q0 38 30 65.5t69 27.5h617q38 0 65 -27.5
t27 -65.5v-357zM256 325h101v99h-101v-99zM457 325h100v99h-100v-99zM657 325h100v99h-100v-99z" />
    <glyph glyph-name="uniE643" unicode="&#xe643;" horiz-adv-x="1000" 
d="M851 612l-50 50q-29 29 -69.5 29t-68.5 -29l-37 -36l189 -189l36 36q29 29 29 69.5t-29 69.5zM325 136v51l-69 68l-5 -5q-23 -23 -28 -56l-14 -49l-10 -6l-35 -165l187 32l9 18l60 19l1 4q11 6 19 15l5 5l-69 69h-51zM284 283l41 -41h32v-73h74v-33l41 -42l322 321
l-189 189z" />
    <glyph glyph-name="uniE644" unicode="&#xe644;" horiz-adv-x="1000" 
d="M939.5 662q-11.5 12 -28.5 12t-28 -12l-396 -396q-12 -12 -12 -28.5t11.5 -28t28.5 -11.5t28 11l396 396q12 12 12 28.5t-11.5 28.5zM792.5 237q-16.5 0 -28 -11.5t-11.5 -27.5v-199q0 -16 -11.5 -27.5t-28.5 -11.5h-515q-16 0 -28 11.5t-12 27.5v635q0 16 12 27.5
t28 11.5h396q17 0 28.5 11.5t11.5 28t-11.5 28t-28.5 11.5h-436q-32 0 -55.5 -23t-23.5 -56v-713q0 -33 23.5 -56.5t55.5 -23.5h595q33 0 56 23.5t23 56.5v238q0 16 -11.5 27.5t-28 11.5z" />
    <glyph glyph-name="uniE645" unicode="&#xe645;" 
d="M384 215q88 0 150.5 62.5t62.5 150.5t-62.5 150.5t-150.5 62.5t-150.5 -62.5t-62.5 -150.5t62.5 -150.5t150.5 -62.5zM384 -84q109 0 182.5 26t73.5 59q0 68 -72 119.5t-184 51.5q-115 0 -185.5 -51.5t-70.5 -119.5q0 -34 70.5 -59.5t185.5 -25.5zM896 300h-85v85
q0 18 -12.5 30.5t-30.5 12.5t-30.5 -12.5t-12.5 -30.5v-85h-85q-18 0 -30.5 -12.5t-12.5 -30t12.5 -30t30.5 -12.5h85v-86q0 -17 12.5 -29.5t30.5 -12.5t30.5 12.5t12.5 29.5v86h85q18 0 30.5 12.5t12.5 30t-12.5 30t-30.5 12.5z" />
    <glyph glyph-name="uniE646" unicode="&#xe646;" 
d="M694 580q17 -2 50.5 -1.5t45.5 -1.5q34 -6 50.5 -33t12.5 -69h-54q-1 -54 -1 -298q0 -16 1 -48.5t0.5 -56.5t-2.5 -44q-3 -31 -23.5 -50.5t-50.5 -25.5q-17 -2 -38.5 -2.5t-50.5 0.5t-41 1q-29 0 -82.5 -0.5t-97 -0.5t-81.5 1q-63 1 -92 39q-3 4 -5 8.5t-4 10.5t-3 10
t-2 12l-2 12v13v14v14v15v376h-52q-6 38 8.5 65t43.5 36q12 4 30.5 4.5t35.5 -0.5t38 0q-3 49 6 74.5t42 29.5q9 1 21.5 1t29 -0.5t25.5 -0.5h152h16h19q5 0 14 -1t14.5 -3t10.5 -6q6 -5 9.5 -12.5t4.5 -18.5t1.5 -19.5t0 -22.5t0.5 -21zM380 629v-50h262v52h-261
q-1 0 -1 -2zM329 469v-318q0 -6 -0.5 -19.5t-0.5 -24t0.5 -22.5t3 -20t7.5 -11q5 -4 15 -4t16 4q5 3 7.5 11t3.5 20t1 22t-0.5 23.5t-0.5 19.5v322h-51q-1 -1 -1 -3zM485 469v-308q0 -3 -1.5 -30t-0.5 -44.5t6 -24.5q5 -8 18 -11t21 3q4 4 6.5 12.5t3 20.5t0.5 23t-1 24
t-1 18v320h-51q-1 -1 0 -3zM642 469v-323q0 -5 -0.5 -20.5t-0.5 -24t1 -20t5 -18.5t10 -9q7 -3 16.5 -2t13.5 4q5 4 7 17.5t2 26t-1 31t-1 23.5v318h-51q-1 -1 -1 -3z" />
    <glyph glyph-name="uniE647" unicode="&#xe647;" 
d="M219.5 859q-60.5 0 -103.5 -42.5t-43 -103t43 -103.5t103.5 -43t103.5 43t43 103.5t-43 103t-103.5 42.5zM219.5 640q-30.5 0 -52 21.5t-21.5 51.5t21.5 51.5t52 21.5t52 -21.5t21.5 -51.5t-21.5 -51.5t-52 -21.5zM219.5 530q-60.5 0 -103.5 -42.5t-43 -103.5t43 -103.5
t103.5 -42.5t103.5 42.5t43 103.5t-43 103.5t-103.5 42.5zM219.5 311q-30.5 0 -52 21.5t-21.5 51.5t21.5 51.5t52 21.5t52 -21.5t21.5 -51.5t-21.5 -51.5t-52 -21.5zM219.5 201q-60.5 0 -103.5 -43t-43 -103.5t43 -103t103.5 -42.5t103.5 42.5t43 103t-43 103.5t-103.5 43z
M219.5 -18q-30.5 0 -52 21.5t-21.5 51.5t21.5 51.5t52 21.5t52 -21.5t21.5 -51.5t-21.5 -51.5t-52 -21.5zM475 750h549v-73h-549v73zM475 421h549v-74h-549v74zM475 91h549v-73h-549v73z" />
    <glyph glyph-name="uniE648" unicode="&#xe648;" 
d="M947 -110h-102v-102h-103v102h-102v103h102v102h103v-102h102v-103zM732 131q-66 67 -160 67h-171q-92 0 -157 -62.5t-65 -150.5v-35q0 -28 10 -60h-107q-5 31 -5 52v51q0 98 56 176t145 111q-46 43 -72.5 101t-26.5 124q0 127 90 217t217.5 90t217.5 -90t90 -217
q0 -66 -26.5 -124t-73.5 -101q79 -30 130 -89q-55 -15 -92 -60zM486.5 710q-84.5 0 -144.5 -60t-60 -145t60 -145t144.5 -60t144.5 60t60 145t-60 145t-144.5 60z" />
    <glyph glyph-name="uniE649" unicode="&#xe649;" 
d="M480 516h64v-549h-64v549zM329 516h64v-549h-64v549zM631 516h64v-549h-64v549zM896 641h-172v41q0 23 -18.5 39t-45.5 16h-296q-27 0 -45.5 -16t-18.5 -39v-41h-177v-64h67v-675q0 -25 19 -43.5t45 -18.5h516q26 0 45 18.5t19 43.5v675h62v64zM364 673h296v-32h-296v32z
M771 -96h-1l-516 -2v675h516z" />
    <glyph glyph-name="uniE64A" unicode="&#xe64a;" 
d="M256 428h64v32h-64v-32zM256 268h64v32h-64v-32zM384 428h384v32h-384v-32zM384 268h384v32h-384v-32zM512 812q-139 0 -257 -68.5t-186.5 -186.5t-68.5 -257t68.5 -257t186.5 -186.5t257 -68.5t257 68.5t186.5 186.5t68.5 257t-68.5 257t-186.5 186.5t-257 68.5z
M512 -180q-98 0 -186.5 38t-153 102.5t-102.5 153t-38 186.5t38 186.5t102.5 153t153 102.5t186.5 38t186.5 -38t153 -102.5t102.5 -153t38 -186.5t-38 -186.5t-102.5 -153t-153 -102.5t-186.5 -38zM256 108h64v32h-64v-32zM384 108h384v32h-384v-32z" />
    <glyph glyph-name="uniE64B" unicode="&#xe64b;" 
d="M747 -102q-41 0 -77 15.5t-63 42.5t-42.5 63t-15.5 76.5t15.5 76.5t42.5 62.5t63 42t76.5 15.5t76.5 -15.5t62.5 -42t42 -62.5t15.5 -76.5t-15.5 -76.5t-42 -63t-62.5 -42.5t-76 -15.5zM844 127h-71v67q0 13 -9 22.5t-22.5 9.5t-21 -9.5t-7.5 -22.5v-67h-63
q-13 0 -22.5 -9.5t-9.5 -23t9.5 -20.5t22.5 -7h63v-68q0 -13 7.5 -23t21 -10t22.5 10t9 23v68h71v-2q14 0 23.5 8t9.5 21.5t-9.5 23t-23.5 9.5zM606 367q-4 -15 -8 -28q-3 -11 -9 -22t-13 -17q-8 -6 -11.5 -14t-6 -16t-5.5 -16.5t-9 -17.5q-23 -29 -34 -56t-15 -52
t-2.5 -49.5t7.5 -47.5q4 -18 11.5 -36.5t22.5 -38.5t38.5 -38.5t57.5 -35.5q-23 -5 -54 -9q-26 -3 -64 -5.5t-87 -2.5q-25 0 -58 2t-68.5 5t-69.5 6.5t-62.5 8t-48 9.5t-24.5 9q-9 7 -13.5 42.5t2.5 91.5q5 32 25.5 49t48.5 26.5t58.5 18t53.5 22.5q18 12 28 22t13.5 20.5
t3.5 22t-1 25.5q-2 20 -14 31.5t-25 23.5q-8 5 -13.5 16.5t-9.5 22.5q-5 13 -8 28q-7 2 -12 6t-11 11.5t-11 22.5q-4 15 -3 27.5t5 21.5q4 10 11 18q0 33 4 65q4 28 12 60t26 57q18 24 37.5 39.5t40.5 24t42.5 12t40.5 3.5q25 0 48 -6t43 -15.5t35.5 -21.5t24.5 -25
q22 -28 32.5 -61.5t15.5 -63.5q4 -34 3 -69q6 -5 10 -12q4 -5 6 -15t0 -24q-2 -18 -8 -29t-12 -16q-8 -7 -17 -10z" />
    <glyph glyph-name="uniE64C" unicode="&#xe64c;" 
d="M917 550q-10 0 -17 -7t-7 -17v-643q0 -19 -14 -33t-34 -14h-667q-19 0 -33 14t-14 33v643q0 10 -7 17t-17 7q-18 0 -23 -18q-1 0 -1 1v-650q0 -39 28 -67t67 -28h667q40 0 68 28t28 67v643q0 10 -7 17t-17 7zM345 -22v524q0 10 -7 17t-16.5 7t-16.5 -7t-7 -17v-524
q0 -9 7 -16t16.5 -7t16.5 7t7 16zM726 -22v524q0 10 -7 17t-16.5 7t-16.5 -7t-7 -17v-524q0 -9 7 -16t16.5 -7t16.5 7t7 16zM988 717h-274l-88 88q-7 7 -18 7h-1h-190h-1q-11 0 -18 -7l-88 -88h-274q-10 0 -17 -7t-7 -17t7 -17t17 -7h285h2q11 0 18 7l88 88h166l88 -88
q8 -7 19 -7h1h285q10 0 17 7t7 17t-7 17t-17 7zM536 -22v524q0 10 -7 17t-17 7t-17 -7t-7 -17v-524q0 -9 7 -16t17 -7t17 7t7 16zM536 -22z" />
    <glyph glyph-name="uniE64D" unicode="&#xe64d;" 
d="M827 812h-630q-82 0 -139.5 -57.5t-57.5 -139.5v-630q0 -82 57.5 -139.5t139.5 -57.5h630q82 0 139.5 57.5t57.5 139.5v630q0 82 -57.5 139.5t-139.5 57.5zM945 -15q0 -49 -34.5 -83.5t-83.5 -34.5h-630q-49 0 -83.5 34.5t-34.5 83.5v630q0 49 34.5 83.5t83.5 34.5h630
q49 0 83.5 -34.5t34.5 -83.5v-630zM826 339h-275v275q0 17 -11.5 28.5t-27.5 11.5t-28 -11.5t-12 -28.5v-275h-274q-17 0 -28.5 -11.5t-11.5 -27.5t11.5 -27.5t28.5 -11.5h274v-275q0 -17 12 -28.5t28 -11.5t27.5 11.5t11.5 28.5v275h275q17 0 28.5 11.5t11.5 27.5
t-11.5 27.5t-28.5 11.5z" />
    <glyph glyph-name="uniE64E" unicode="&#xe64e;" 
d="M816.5 438q-11.5 0 -19.5 -8t-8 -20v-484q0 -34 -24.5 -58.5t-58.5 -24.5h-332q-35 0 -59 24.5t-24 58.5v484q0 12 -8 20t-19.5 8t-20 -8t-8.5 -20v-484q0 -57 41 -97.5t98 -40.5h332q57 0 97.5 40.5t40.5 97.5v484q0 12 -8 20t-19.5 8zM429 -74v387q0 12 -8 20t-19.5 8
t-19.5 -8t-8 -20v-387q0 -11 8 -19t19.5 -8t19.5 8t8 19zM567 -74v387q0 12 -8 20t-19.5 8t-19.5 -8t-8 -20v-387q0 -11 8 -19t19.5 -8t19.5 8t8 19zM706 -74v387q0 12 -8.5 20t-19.5 8t-19.5 -8t-8.5 -20v-387q0 -11 8.5 -19t19.5 -8t19.5 8t8.5 19zM895 661l-13 54
q-9 33 -38.5 50.5t-62.5 9.5l-215 -54l-7 28q-8 33 -37.5 51t-62.5 9.5t-51 -38t-10 -62.5l8 -28l-215 -54q-33 -8 -51 -37.5t-10 -62.5l14 -54q3 -11 12.5 -17t21.5 -3l697 174q11 3 17 13t3 21zM472 756q11 3 21 -3t13 -17l7 -28l-54 -14l-7 28q-3 11 3 21t17 13zM191 513
l-7 27q-3 11 3 21t17 13l590 147q12 3 21.5 -3t12.5 -17l7 -27z" />
    <glyph glyph-name="uniE64F" unicode="&#xe64f;" 
d="M465 67q0 57 22 110q22 50 60.5 88.5t88.5 60.5q53 22 110 22q21 0 41 -3v134q0 35 -25 60t-60 25h-49q-6 90 -69 154q-70 70 -168.5 70t-168.5 -70q-63 -64 -69 -154h-49q-35 0 -60 -25t-25 -60v-504q0 -36 25 -61t60 -25h400q-26 32 -42 69q-22 52 -22 109zM671 485
q0 -16 -11 -27.5t-27 -11.5t-27.5 11.5t-11.5 27.5q0 21 18 33v-24q0 -8 6 -14t14.5 -6t14.5 6t6 14v24q18 -12 18 -33zM415.5 747q77.5 0 134 -53t62.5 -130h-393q6 77 62.5 130t134 53zM198 446q-16 0 -27 11.5t-11 27.5q0 21 18 33v-24q0 -8 6 -14t14.5 -6t14.5 6t6 14
v24q18 -12 18 -33q0 -16 -11.5 -27.5t-27.5 -11.5zM745.5 307q-99.5 0 -169.5 -70t-70 -169.5t70 -169.5t169.5 -70t169.5 70t70 169.5t-70 169.5t-169.5 70zM915 66q0 -9 -6 -15t-15 -6h-126v-126q0 -9 -6 -15t-15 -6h-3q-9 0 -15 6t-6 15v126h-126q-8 0 -14 6t-6 15v3
q0 9 6 15t14 6h126v126q0 8 6 14t15 6h3q9 0 15 -6t6 -14v-126h126q9 0 15 -6t6 -15v-3z" />
    <glyph glyph-name="uniE650" unicode="&#xe650;" horiz-adv-x="1036" 
d="M179 -121q-12 0 -20 8t-8 20v75q0 112 63 204t168 134l16 7l-13 10q-40 31 -61.5 75t-21.5 94q0 89 63.5 152t153 63t152.5 -63t63 -152q0 -50 -21.5 -94t-61.5 -75l-13 -10l16 -7q105 -42 168 -134t63 -204v-75q0 -12 -8 -20t-20 -8h-678zM518 291q-129 0 -220 -90.5
t-91 -218.5v-48h622v48q0 128 -91 218.5t-220 90.5zM518 666q-66 0 -113.5 -47t-47.5 -113t47.5 -113t113.5 -47t113.5 47t47.5 113t-47.5 113t-113.5 47zM28 -9q-12 0 -20 8.5t-8 19.5v58q0 82 42 151t115 106l11 6l-8 9q-47 51 -47 120q0 70 49.5 121.5t120.5 55.5
q-22 -30 -34 -64q-36 -12 -58 -43.5t-22 -69.5q0 -36 19.5 -66.5t52.5 -45.5q20 -7 20 -25q0 -20 -21 -26l-6 -2q-79 -20 -128.5 -83t-49.5 -144v-30h35q-5 -28 -5 -56h-58zM950 -9q-1 28 -6 56h36v30q0 81 -50 144t-128 83l-8 2q-19 6 -19 26q0 18 19 25q33 15 53 45.5
t20 66.5q0 38 -22.5 69.5t-59.5 44.5q-10 33 -32 63q70 -4 120 -55.5t50 -121.5q0 -69 -47 -120l-9 -9l12 -6q72 -37 114.5 -106t42.5 -151v-58q0 -11 -8.5 -19.5t-19.5 -8.5h-58z" />
    <glyph glyph-name="uniE651" unicode="&#xe651;" 
d="M163.5 77q-46.5 0 -79.5 -33t-33 -80t33 -79.5t79.5 -32.5t79.5 32.5t33 79.5t-33 80t-79.5 33zM163 -120q-35 0 -59.5 24.5t-24.5 59.5t24.5 59.5t59.5 24.5t59.5 -24.5t24.5 -59.5t-24.5 -59.5t-59.5 -24.5zM869 77h-564v-31h564q32 0 51.5 -23.5t19.5 -58t-19.5 -58.5
t-51.5 -24h-564v-30h564q35 0 68.5 34.5t33.5 78.5t-33.5 78t-68.5 34zM163.5 411q-46.5 0 -79.5 -33t-33 -79.5t33 -79.5t79.5 -33t79.5 33t33 79.5t-33 79.5t-79.5 33zM163 215q-35 0 -59.5 24.5t-24.5 59.5t24.5 59.5t59.5 24.5t59.5 -24.5t24.5 -59.5t-24.5 -59.5
t-59.5 -24.5zM869 411h-564v-30h564q32 0 51.5 -23.5t19.5 -58.5t-19.5 -58.5t-51.5 -23.5h-564v-31h564q35 0 68.5 34.5t33.5 78.5t-33.5 78t-68.5 34zM163.5 746q-46.5 0 -79.5 -33t-33 -79.5t33 -79.5t79.5 -33t79.5 33t33 79.5t-33 79.5t-79.5 33zM163 549
q-35 0 -59.5 24.5t-24.5 59.5t24.5 59.5t59.5 24.5t59.5 -24.5t24.5 -59t-24.5 -59.5t-59.5 -25zM869 746h-564v-31h564q32 0 51.5 -23.5t19.5 -58t-19.5 -58.5t-51.5 -24h-564v-30h564q35 0 68.5 34.5t33.5 78.5t-33.5 78t-68.5 34z" />
    <glyph glyph-name="uniE652" unicode="&#xe652;" 
d="M864 720h-544q-5 0 -12.5 -0.5t-26.5 -6.5t-34 -16.5t-27 -34t-12 -54.5v-640h-160q-1 -6 -1 -15.5t3 -34.5t11.5 -44t30 -34.5t52.5 -15.5h672q3 0 12 1t27.5 7.5t33.5 18.5t27 38.5t12 62.5v624h64q-2 1 0.5 15t-4 36t-17 42.5t-39 35.5t-68.5 15zM144 -128
q-21 0 -33 12t-13 24l-2 12h96q0 -2 -0.5 -5t-3 -11.5t-7 -15t-14.5 -11.5t-23 -5zM880 -46q0 -23 -6.5 -40t-15.5 -24.5t-19.5 -12t-15.5 -5t-7 -0.5h-592q32 32 32 96v640q0 3 0.5 7t4 15t9.5 19.5t19 15.5t31 7q28 0 44 -16t18 -32l2 -16v-32h496v-622zM432 624
q0 32 -24 48h472q2 0 5 -0.5t11.5 -3t15 -7t11.5 -14.5t5 -23h-496zM544 240h272v-48h-272v48zM544 416h272v-48h-272v48zM384 32l-48 48l-32 -32l80 -80l112 112l-32 32zM544 48h272v-48h-272v48zM384 224l-48 48l-32 -32l80 -80l112 112l-32 32zM304 416l80 -80l112 112
l-32 32l-80 -80l-48 48z" />
    <glyph glyph-name="uniE653" unicode="&#xe653;" 
d="M256 512h64v32h-64v-32zM256 352h64v32h-64v-32zM384 512h384v32h-384v-32zM384 352h384v32h-384v-32zM512 896q-139 0 -257 -68.5t-186.5 -186.5t-68.5 -257t68.5 -257t186.5 -186.5t257 -68.5t257 68.5t186.5 186.5t68.5 257t-68.5 257t-186.5 186.5t-257 68.5z
M512 -96q-98 0 -186.5 38t-153 102.5t-102.5 153t-38 186.5t38 186.5t102.5 153t153 102.5t186.5 38t186.5 -38t153 -102.5t102.5 -153t38 -186.5t-38 -186.5t-102.5 -153t-153 -102.5t-186.5 -38zM256 192h64v32h-64v-32zM384 192h384v32h-384v-32z" />
    <glyph glyph-name="uniE654" unicode="&#xe654;" 
d="M581 -50q-78 -12 -153 -12q-361 0 -361 99v58q0 55 71 102.5t169 66.5q4 2 10 6.5t14.5 19.5t3.5 32q-17 21 -29 46t-15 39l-4 14q-14 6 -22 17q-11 15 -18.5 41.5t-5.5 46.5q1 10 3 15.5t3.5 6.5t3 1.5t1.5 1.5q-17 50 -11.5 102.5t30.5 97.5q23 41 59.5 60.5t70 18.5
t60.5 -12.5t36 -28.5q37 7 63 -9.5t37.5 -46.5t15.5 -66t1 -66t-9 -48q2 -1 4 -2.5t4.5 -15t1.5 -36t-12.5 -43.5t-22.5 -31l-11 -9q-1 -13 -14 -40.5t-32 -53.5q-7 -15 -5 -27q-40 -64 -40 -138q0 -62 27.5 -116t75.5 -91zM957 157.5q0 -90.5 -64 -154.5t-154.5 -64
t-154.5 64t-64 154.5t64 154.5t154.5 64t154.5 -64t64 -154.5zM859 188h-90v90h-61v-90h-90v-62h90v-90h61v90h90v62z" />
    <glyph glyph-name="uniE655" unicode="&#xe655;" 
d="M689 383q0 -8 6 -14t14 -6h230q8 0 14 6t6 14.5t-6 14.5t-14 6h-230q-8 0 -14 -6t-6 -15zM689 383zM802 497v-230q0 -8 6.5 -14t15 -6t14.5 6t6 14v230q0 8 -6 14t-14.5 6t-15 -6t-6.5 -14zM802 497zM504 -26h-164q-50 0 -75 0.5t-64 2.5t-58 7t-40.5 13.5t-30 23
t-8.5 33.5v16q0 113 81 193t195 80h164q114 0 195 -80t81 -193v-16q0 -14 -5 -26t-17.5 -20t-25 -14t-35.5 -10t-39.5 -6t-48.5 -3t-51 -1h-54v0zM339 298q-96 0 -164.5 -67t-68.5 -162v-16q0 -12 20 -19t62 -10t71 -3.5t80 -0.5h166q45 0 73 0.5t71.5 3.5t66 10t22.5 19v16
q0 95 -68.5 162t-164.5 67h-166v0zM414 359q-91 0 -155.5 63.5t-64.5 153t64.5 153t155.5 63.5t155.5 -63.5t64.5 -153t-64.5 -153t-155.5 -63.5v0zM239 576q0 -71 51.5 -121t123.5 -50t123 50t51 121t-51 121t-123 50t-123.5 -50t-51.5 -121v0zM239 576z" />
    <glyph glyph-name="uniE656" unicode="&#xe656;" 
d="M683 768v-43q0 -17 -12.5 -29.5t-30.5 -12.5h-256q-18 0 -30.5 12.5t-12.5 29.5v43q0 18 12.5 30.5t30.5 12.5h256q18 0 30.5 -12.5t12.5 -30.5zM341 768h342v-43h-342v43zM853 725v-725q0 -18 -12.5 -30.5t-29.5 -12.5h-598q-17 0 -29.5 12.5t-12.5 30.5v725
q0 18 12.5 30.5t29.5 12.5h86v-43h-86v-725h598v725h-86v43h86q17 0 29.5 -12.5t12.5 -30.5zM299 555h85v-86h-85v86zM427 555h298v-86h-298v86zM299 384h85v-85h-85v85zM427 384h298v-85h-298v85zM299 213h85v-85h-85v85zM427 213h298v-85h-298v85z" />
    <glyph glyph-name="uniE657" unicode="&#xe657;" 
d="M775 792l-55 39l-471 -740l55 -39zM209 4v-67h606v67h-606z" />
    <glyph glyph-name="uniE658" unicode="&#xe658;" horiz-adv-x="1025" 
d="M817 573q0 48 -33 81.5t-81 33.5q-47 0 -84.5 -34t-38.5 -80v-123h123q47 0 80.5 37t33.5 85zM323 688q-48 0 -81 -33.5t-33 -81.5t33.5 -85t80.5 -37h123v123q-1 46 -38.5 80t-84.5 34zM209 195q0 -48 33 -81.5t81 -33.5q47 0 84.5 34t38.5 80v123h-123q-47 0 -80.5 -37
t-33.5 -85zM513 896q-139 0 -257 -68.5t-186.5 -186.5t-68.5 -257t68.5 -257t186.5 -186.5t257 -68.5q104 0 199 40.5t163.5 109t109 163.5t40.5 199t-40.5 199t-109 163.5t-163.5 109t-199 40.5zM496 196q0 -68 -51 -118t-120 -50q-68 0 -118 50t-50 118q0 69 50 120
t118 51l172 -1q-1 -129 -1 -170zM325 401q-68 0 -118 51t-50 120q0 68 50 118t118 50q69 0 120 -50t51 -118q0 -19 0.5 -61.5t0.5 -75.5v-33q-122 -1 -172 -1zM530 572q0 68 51 116.5t120 48.5q68 0 116.5 -48.5t48.5 -116.5q0 -69 -48.5 -120t-116.5 -51l-172 1
q1 129 1 170zM701 28q-69 0 -120 50t-51 118l-1 170q122 1 172 1q68 0 118 -51t50 -120q0 -68 -50 -118t-118 -50zM703 317h-123v-123v1v-1q1 -46 38.5 -80t84.5 -34q48 0 81 33.5t33 81.5t-33.5 85t-80.5 37z" />
    <glyph glyph-name="uniE659" unicode="&#xe659;" 
d="M922 347h-566q-16 0 -27 11t-11 26.5t11 26.5t27 11h566q15 0 26 -11t11 -26.5t-11 -26.5t-26 -11zM922 647h-566q-16 0 -27 11t-11 26.5t11 26.5t27 11h566q15 0 26 -11t11 -26.5t-11 -26.5t-26 -11zM137 9q-32 0 -54 22t-22 53t22 53t53.5 22t53.5 -22t22 -53t-22 -53
t-53 -22zM137 309q-32 0 -54 22t-22 53.5t22 53.5t53.5 22t53.5 -22t22 -53.5t-22 -53.5t-53 -22zM137 610q-32 0 -54 22t-22 53t22 53t53.5 22t53.5 -22t22 -53t-22 -53t-53 -22zM356 122h566q15 0 26 -11t11 -26.5t-11 -26.5t-26 -11h-566q-16 0 -27 11t-11 26.5t11 26.5
t27 11zM356 122z" />
    <glyph glyph-name="uniE65A" unicode="&#xe65a;" horiz-adv-x="1205" 
d="M798 -100h-798q14 112 87.5 201t177.5 125q-58 32 -93 92t-35 130q0 106 77 183t183 77t183 -77t77 -183q0 -70 -35 -130t-93 -92q106 -36 179 -124t90 -202zM1205 56h-421q-78 133 -203 179q56 32 87 89t31 129q0 78 -39 145.5t-103 99.5q25 78 91.5 124t154.5 46
q106 0 183 -76.5t77 -183.5q0 -69 -35 -129t-93 -93q108 -43 180 -130.5t90 -199.5z" />
    <glyph glyph-name="uniE65B" unicode="&#xe65b;" 
d="M337 750h-196q-22 0 -38 -16t-16 -38v-196q0 -23 16 -38.5t38 -15.5h196q22 0 38 15.5t16 38.5v196q0 22 -16 38t-38 16zM340 500q0 -3 -3 -3h-196q-3 0 -3 3v196q0 2 3 2h196q3 0 3 -2v-196zM538 696q1 -1 3 -1h2h2h378h1h2h3q11 2 18 10.5t7 20t-7 19.5t-18 11
q-1 1 -3 1h-385q-2 0 -3 -2q-11 -2 -18 -10.5t-7 -19t7 -19t18 -10.5zM537 466q2 -2 4 -2h385q2 0 3 2q11 2 18 10.5t7 19.5t-7 19.5t-18 10.5h-3h-1q-1 1 -3 0h-376q-2 1 -3 0h-2h-3q-11 -3 -18 -11t-7 -19t7 -19.5t17 -10.5zM537 233q2 -2 4 -2h385q1 0 2 1q12 0 20.5 9
t8.5 22q0 12 -9 21.5t-22 9.5h-1h-380h-2h-2q-2 0 -3 -1q-11 -2 -18 -10.5t-7 -19.5t7 -19.5t17 -10.5zM928 89h-2h-385q-2 0 -3 -2q-11 -2 -18 -10.5t-7 -19t7 -19t18 -10.5q1 -1 3 -1h1h3h379h2q13 0 22 9t9 22q0 12 -8.5 21t-20.5 10zM239 259q41 0 69.5 -29t28.5 -69.5
t-28.5 -69.5t-69.5 -29t-69.5 29t-28.5 69.5t28.5 69.5t69.5 29zM239 309q-62 0 -105.5 -43.5t-43.5 -105t43.5 -105.5t105.5 -44t105.5 44t43.5 105.5t-43.5 105t-105.5 43.5z" />
    <glyph glyph-name="uniE65C" unicode="&#xe65c;" 
d="M70 50q0 -24 17 -41t41 -17t41 17t17 41t-17 41t-41 17t-41 -17t-17 -41zM128 306zM70 306q0 24 17 41t41 17t41 -17t17 -41t-17 -41t-41 -17t-41 17t-17 41zM128 562zM70 562q0 24 17 41t41 17t41 -17t17 -41t-17 -41t-41 -17t-41 17t-17 41zM930 591h-22h-21h-495h-25
h-18q-12 0 -20.5 -8.5t-8.5 -21t8.5 -21t20.5 -8.5h18h25h495h21h22q12 0 20.5 8.5t8.5 21t-8.5 21t-20.5 8.5zM930 335h-22h-21h-495h-25h-18q-12 0 -20.5 -8.5t-8.5 -21t8.5 -21t20.5 -8.5h18h25h495h21h22q12 0 20.5 8.5t8.5 21t-8.5 21t-20.5 8.5zM930 79h-22h-21h-495
h-25h-18q-12 0 -20.5 -8.5t-8.5 -21t8.5 -21t20.5 -8.5h18h25h495h21h22q12 0 20.5 8.5t8.5 21t-8.5 21t-20.5 8.5z" />
    <glyph glyph-name="uniE65D" unicode="&#xe65d;" 
d="M755 269q-44 34 -96 55q55 38 87 98t32 130q0 115 -82 197t-197.5 82t-197.5 -82t-82 -197q0 -72 34 -133.5t92 -100.5q-107 -46 -175 -145.5t-71 -218.5h515q-31 50 -31 110q0 76 49 134t123 71zM826 93v98h-56v-98h-97v-49h97v-104h56v104h98v49h-98z" />
    <glyph glyph-name="uniE65E" unicode="&#xe65e;" horiz-adv-x="1093" 
d="M1024 645v0q0 -14 8.5 -23t19.5 -9h-550h-42l-19 38l-68 136l61 31l-46 -50q8 -8 17 -8h-364q11 0 19 9t8 23v-876q0 2 -4 11l-1 1q-1 1 -2 3l-5 5v0h1q-2 1 -11 5h-5h1011q-18 0 -26 -19l64 -24h-68zM1092 645l-2 -747q-9 -25 -38 -25h-1011q-7 0 -17 3q-6 3 -13 9l-1 1
q-2 1 -2 2q-2 2 -5 7q-2 6 -3 15v882q0 15 12 26t29 11h364q17 0 29 -11l68 -136h550q17 0 28.5 -11t11.5 -26z" />
    <glyph glyph-name="uniE65F" unicode="&#xe65f;" 
d="M731 393q-94 0 -160.5 -67t-66.5 -161t66.5 -161t160.5 -67t161 67t67 161t-67 161t-161 67zM862 136h-101v-102q0 -12 -9 -21t-21 -9t-20.5 9t-8.5 21v102h-102q-12 0 -20.5 8.5t-8.5 20.5t8.5 20.5t20.5 8.5h102v102q0 12 8.5 21t20.5 9t21 -9t9 -21v-102h101
q12 0 21 -8.5t9 -20.5t-9 -20.5t-21 -8.5zM690 637h-48v0q-9 83 -73 139t-150.5 56t-150.5 -56t-73 -139h-50q-33 0 -57 -23.5t-24 -57.5v-479q0 -34 24 -57.5t57 -23.5h381q-25 29 -40 65q-21 50 -21 104t21 104q20 48 57 84.5t84 56.5q50 21 104 21q20 0 40 -3v128
q0 34 -24 57.5t-57 23.5zM222.5 514q-18.5 0 -32 13t-13.5 32q0 22 18 36v-21q0 -12 9 -20.5t21 -8.5t20.5 8.5t8.5 20.5v16q13 -13 13 -31.5t-13 -31.5t-31.5 -13zM254 637q9 59 55.5 98.5t109 39.5t109 -39.5t55.5 -98.5h-329zM619.5 514q-18.5 0 -31.5 13t-13 32
q0 14 8 25v-10q0 -12 8.5 -20.5t20.5 -8.5t21 8.5t9 20.5v24q23 -13 23 -39q0 -19 -13.5 -32t-32 -13z" />
    <glyph glyph-name="uniE660" unicode="&#xe660;" 
d="M337 750h-196q-22 0 -38 -16t-16 -38v-196q0 -23 16 -38.5t38 -15.5h196q22 0 38 15.5t16 38.5v196q0 22 -16 38t-38 16zM340 500q0 -3 -3 -3h-196q-3 0 -3 3v196q0 2 3 2h196q3 0 3 -2v-196zM538 696q1 -1 3 -1h2h2h378h1h2h3q11 2 18 10.5t7 20t-7 19.5t-18 11
q-1 1 -3 1h-385q-2 0 -3 -2q-11 -2 -18 -10.5t-7 -19t7 -19t18 -10.5zM537 466q2 -2 4 -2h385q2 0 3 2q11 2 18 10.5t7 19.5t-7 19.5t-18 10.5h-3h-1q-1 1 -3 0h-376q-2 1 -3 0h-2h-3q-11 -3 -18 -11t-7 -19t7 -19.5t17 -10.5zM537 233q2 -2 4 -2h385q1 0 2 1q12 0 20.5 9
t8.5 22q0 12 -9 21.5t-22 9.5h-1h-380h-2h-2q-2 0 -3 -1q-11 -2 -18 -10.5t-7 -19.5t7 -19.5t17 -10.5zM928 89h-2h-385q-2 0 -3 -2q-11 -2 -18 -10.5t-7 -19t7 -19t18 -10.5q1 -1 3 -1h1h3h379h2q13 0 22 9t9 22q0 12 -8.5 21t-20.5 10zM239 259q41 0 69.5 -29t28.5 -69.5
t-28.5 -69.5t-69.5 -29t-69.5 29t-28.5 69.5t28.5 69.5t69.5 29zM239 309q-62 0 -105.5 -43.5t-43.5 -105t43.5 -105.5t105.5 -44t105.5 44t43.5 105.5t-43.5 105t-105.5 43.5z" />
    <glyph glyph-name="uniE661" unicode="&#xe661;" 
d="M128 853v-938h768v938h-768v0zM85 853q0 18 12.5 30.5t30.5 12.5h768q18 0 30.5 -12.5t12.5 -30.5v-938q0 -18 -12.5 -30.5t-30.5 -12.5h-768q-18 0 -30.5 12.5t-12.5 30.5v938zM277.5 640q26.5 0 45 18.5t18.5 45.5t-18.5 45.5t-45 18.5t-45.5 -18.5t-19 -45.5t19 -45.5
t45.5 -18.5zM277 683q-9 0 -15 6t-6 15t6 15t15 6t15.5 -6t6.5 -15t-6.5 -15t-15.5 -6zM417 704q0 9 6 15t15 6h341q9 0 15.5 -6.5t6.5 -14.5q0 -9 -6.5 -15.5t-15.5 -6.5h-341q-9 0 -15 6.5t-6 15.5zM277.5 427q26.5 0 45 18.5t18.5 45t-18.5 45.5t-45 19t-45.5 -19
t-19 -45.5t19 -45t45.5 -18.5zM277 469q-9 0 -15 6.5t-6 15.5t6 15t15 6t15.5 -6t6.5 -15t-6.5 -15.5t-15.5 -6.5zM417 490q0 9 6 15.5t15 6.5h341q9 0 15.5 -6.5t6.5 -15.5t-6.5 -15t-15.5 -6h-341q-9 0 -15 6.5t-6 14.5zM277.5 213q26.5 0 45 19t18.5 45.5t-18.5 45
t-45 18.5t-45.5 -18.5t-19 -45t19 -45.5t45.5 -19zM277 256q-9 0 -15 6t-6 15t6 15.5t15 6.5t15.5 -6.5t6.5 -15.5t-6.5 -15t-15.5 -6zM417 277q0 9 6 15t15 6h341q9 0 15.5 -6t6.5 -15t-6.5 -15t-15.5 -6h-341q-9 0 -15 6t-6 15zM277.5 0q26.5 0 45 18.5t18.5 45.5
t-18.5 45.5t-45 18.5t-45.5 -18.5t-19 -45.5t19 -45.5t45.5 -18.5zM277 43q-9 0 -15 6t-6 15t6 15t15 6t15.5 -6t6.5 -15t-6.5 -15t-15.5 -6zM417 64q0 9 6 15t15 6h341q9 0 15.5 -6.5t6.5 -14.5q0 -9 -6.5 -15.5t-15.5 -6.5h-341q-9 0 -15 6.5t-6 15.5z" />
    <glyph glyph-name="uniE662" unicode="&#xe662;" horiz-adv-x="1217" 
d="M1194 -128q-10 0 -16.5 7t-6.5 17q0 32 -16.5 58.5t-46.5 56.5q-72 71 -131 75q-38 4 -63 30l-3 4q-22 26 -22 60v17q0 14 12 20l1 1q30 21 57 90l2 6q17 43 31 56l2 2l1 1q22 21 34 52v1q12 35 -4 56h-1l-4 9l-2 2q-3 12 -1 21q13 45 17 76q4 39 0 67l-3 15l-1 1
q-13 49 -46 90h-1q-27 31 -49 31h-5h-8q-12 0 -22 4q-15 8 -23 21v1h-1q-12 18 -49 25q-21 4 -58 4h-14q-36 -1 -57 -8.5t-49 -27.5q-48 -33 -69 -99q-18 -53 -17 -108t18 -94q2 -7 2 -10q0 -10 -7 -18l-4 -5v-1q-12 -21 -2 -52l18 -55l3 12l4 1q5 -7 10 -12l5 -5h1
q12 -14 28 -55l1 -3l1 -2q9 -22 14.5 -34.5t18.5 -30.5t28 -27q11 -7 11 -20v-15q0 -37 -26 -64q-24 -26 -62 -30q-34 -2 -74 -19.5t-69 -47.5q-51 -49 -51 -123q0 -10 -6.5 -17t-16 -7t-16 7t-6.5 17q0 93 64 157q38 38 86.5 57.5t84.5 23.5q20 1 34 15q9 9 12 22l1 10
l-7 7q-16 13 -29 33t-19 33.5t-15 37.5q-13 34 -19 41l-1 2l-2 1v1q-35 32 -49 76t4 84l4 7l-3 7q-14 44 -14 94q-1 65 19 124q26 81 87 122v1q33 23 60.5 33t69.5 11h18q36 0 63 -5q55 -11 77 -43l6 -8l9 1h8q44 0 84 -49q18 -22 33 -51l6 -11l15 -42l6 -22v-2q6 -38 1 -80
q-5 -36 -14 -69l-2 -7l4 -7q21 -36 7 -84q-14 -44 -49 -79h-1v-1l-2 -2q-7 -7 -21 -43v-1q-9 -24 -15 -37t-18.5 -32t-27.5 -32l-7 -6l1 -10q2 -10 7 -18v-1v-2l6 -5q15 -13 33 -14q77 -7 151 -81q85 -85 85 -157q0 -10 -6.5 -17t-15.5 -7zM430 321h-412q-7 0 -12.5 6
t-5.5 15v20q0 8 5.5 14.5t12.5 6.5h412q8 0 13 -6.5t5 -14.5v-20q0 -9 -5 -15t-13 -6zM430 705h-412q-7 0 -12.5 6t-5.5 15v20q0 8 5.5 14.5t12.5 6.5h412q8 0 13 -6.5t5 -14.5v-20q0 -9 -5 -15t-13 -6zM18 1h286q7 0 12 -6.5t5 -15.5v-20q0 -9 -5 -15.5t-12 -6.5h-286
q-7 0 -12.5 6.5t-5.5 15.5v20q0 9 5.5 15.5t12.5 6.5z" />
    <glyph glyph-name="uniE663" unicode="&#xe663;" 
d="M683 768v-43q0 -17 -12.5 -29.5t-30.5 -12.5h-256q-18 0 -30.5 12.5t-12.5 29.5v43q0 18 12.5 30.5t30.5 12.5h256q18 0 30.5 -12.5t12.5 -30.5zM341 768h342v-43h-342v43zM853 725v-725q0 -18 -12.5 -30.5t-29.5 -12.5h-598q-17 0 -29.5 12.5t-12.5 30.5v725
q0 18 12.5 30.5t29.5 12.5h86v-43h-86v-725h598v725h-86v43h86q17 0 29.5 -12.5t12.5 -30.5zM299 555h85v-86h-85v86zM427 555h298v-86h-298v86zM299 384h85v-85h-85v85zM427 384h298v-85h-298v85zM299 213h85v-85h-85v85zM427 213h298v-85h-298v85z" />
    <glyph glyph-name="uniE664" unicode="&#xe664;" 
d="M990 417h-439v443h439v-443zM599 465h343v347h-343v-347zM478 417h-440v443h440v-443zM86 465h344v347h-344v-347zM990 -94h-439v442h439v-442zM599 -46h343v347h-343v-347zM478 -94h-440v442h440v-442zM86 -46h344v347h-344v-347z" />
    <glyph glyph-name="uniE665" unicode="&#xe665;" 
d="M283 -51v202h-200zM797 239v151h-100v-151h-151v-101h151v-138h100v138h138v101h-138zM647 88h-76q-26 0 -44 18.5t-18 44.5v75q0 27 18 45t44 18h76v76q0 26 18 44.5t44 18.5q6 0 13 -1v392q0 5 -4 8.5t-9 3.5h-589q-5 0 -8.5 -3.5t-3.5 -8.5v-630q0 3 1.5 3t5 -1.5
t5.5 -1.5h188q5 0 9 -4t4 -9v-189q0 -3 1.5 -6.5t1.5 -4.5t-3 -1h331q-5 12 -5 25v88zM168 746q0 6 4 10t10 4h469q6 0 10 -4t4 -10v-14q0 -6 -4 -10t-10 -4h-469q-6 0 -10 4t-4 10v14zM168 647q0 5 4 9.5t10 4.5h469q6 0 10 -4.5t4 -9.5v-15q0 -6 -4 -10t-10 -4h-469
q-6 0 -10 4t-4 10v15zM168 547q0 6 4 10t10 4h469q6 0 10 -4t4 -10v-14q0 -6 -4 -10t-10 -4h-469q-6 0 -10 4t-4 10v14zM452 434q0 -15 -8 -15h-268q-8 0 -8 15v14q0 14 8 14h268q8 0 8 -14v-14z" />
    <glyph glyph-name="uniE666" unicode="&#xe666;" 
d="M992 416h-128v-128h-192v128h-128v192h128v128h192v-128h128v-192zM32 480h448v-192h-448v192zM32 736h448v-192h-448v192zM992 32h-960v192h960v-192z" />
    <glyph glyph-name="uniE667" unicode="&#xe667;" 
d="M845 224q-70 50 -154 60q70 46 111.5 119.5t41.5 160.5q0 90 -44.5 166.5t-121 121t-166.5 44.5t-166.5 -44.5t-121 -121t-44.5 -166.5q0 -87 41.5 -160.5t111.5 -119.5q-124 -15 -208 -108.5t-84 -220.5v-28q0 -25 5 -55h57q-6 29 -6 58v23q0 115 86 197t207 82h244
q91 0 165 -49zM512 287q-115 0 -196 81t-81 196t81 196t196 81t196 -81t81 -196t-81 -196t-196 -81zM872 38v111h-56v-111h-110v-55h110v-111h56v111h110v55h-110z" />
    <glyph glyph-name="uniE668" unicode="&#xe668;" 
d="M675 413h-127v127q0 15 -10.5 25.5t-25.5 10.5t-26 -10.5t-11 -25.5v-127h-127q-15 0 -25.5 -11t-10.5 -26t10.5 -25.5t25.5 -10.5h127v-127q0 -15 11 -26t26 -11t25.5 11t10.5 26v127h127q15 0 25.5 10.5t10.5 25.5t-10.5 26t-25.5 11zM511 831q-92 0 -176 -36t-145 -97
t-97 -145t-36 -176.5t36 -176.5t97 -144.5t145 -96.5t176.5 -36t176.5 36t144.5 96.5t96.5 144.5t36 176.5t-36 176.5t-96.5 145t-144.5 97t-177 36zM511 -21q-107 0 -198.5 53.5t-145 145t-53.5 199t53.5 199t145 145t199 53.5t199 -53.5t145 -145t53.5 -199t-53.5 -199
t-145 -145t-199.5 -53.5zM511 -21z" />
    <glyph glyph-name="uniE669" unicode="&#xe669;" 
d="M661 606q7 13 0 27q-9 14 -40 14h-3h-339h-13q-21 0 -32.5 -8.5t-11.5 -19.5q0 -15 16 -23q19 -10 28 -10h355q28 0 40 20zM222 494q0 -17 16 -25q12 -6 28 -6h272l5 6q18 20 26 26l35 29h-338q-21 0 -32.5 -9t-11.5 -21zM812 519q20 -9 27 -14l25 -15v276q0 34 -23 50
t-49 16h-645q-28 0 -55.5 -16.5t-27.5 -49.5v-729q0 -33 27.5 -50t55.5 -17h645q35 0 53.5 21.5t18.5 45.5v65l-36 33l-26 -12v-87q0 -2 -2 -4q-1 -1 -1.5 -1t-2.5 0.5t-4 0.5h-645q-1 0 -5 -0.5t-7 -1t-6 1t-3 5.5v729q0 4 21 4h645q1 0 4.5 1.5t4.5 0.5t1 -6v-242z
M952 142l-109 106q26 41 26 90q0 71 -51.5 120.5t-124 49.5t-124 -49.5t-51.5 -120.5t51.5 -120.5t123.5 -49.5q63 0 111 38l107 -105q10 -10 21 0l20 21q11 10 0 20zM566 337q0 51 37.5 87.5t90.5 36.5t90.5 -36.5t37.5 -87.5t-37.5 -87.5t-90.5 -36.5t-90.5 36.5
t-37.5 87.5zM811 109z" />
    <glyph glyph-name="uniE66A" unicode="&#xe66a;" 
d="M279 90v757l-218 3v-100h136v-850h97l676 950h-153z" />
    <glyph glyph-name="uniE66B" unicode="&#xe66b;" 
d="M511.5 -125q-103.5 0 -197.5 40.5t-162 108.5t-108.5 162t-40.5 197.5t40.5 198t108.5 162.5t162 108.5t197.5 40.5t198 -40.5t162.5 -108.5t108.5 -162.5t40.5 -198t-40.5 -197.5t-108.5 -162t-162.5 -108.5t-198 -40.5zM512 21q109 0 201 60l-504 504q-60 -92 -60 -201
q0 -99 48.5 -182.5t132 -132t182.5 -48.5zM512 747q-109 0 -201 -60l504 -504q60 92 60 201q0 99 -48.5 182.5t-132 132t-182.5 48.5z" />
    <glyph glyph-name="uniE66C" unicode="&#xe66c;" 
d="M828 609h-366q-47 0 -81 33.5t-34 81.5t34 81.5t81 33.5h366q47 0 81 -33.5t34 -81.5t-34 -81.5t-81 -33.5zM462 785q-25 0 -43 -18t-18 -43t18 -43t43 -18h366q25 0 43 18t18 43t-18 43t-43 18h-366zM828 -27h-366q-47 0 -81 33.5t-34 81t34 81.5t81 34h366q47 0 81 -34
t34 -81.5t-34 -81t-81 -33.5zM462 149q-25 0 -43 -18t-18 -43t18 -43t43 -18h366q25 0 43 18t18 43t-18 43t-43 18h-366zM828 284h-366q-47 0 -81 33.5t-34 81.5t34 81.5t81 33.5h366q47 0 81 -33.5t34 -81.5t-34 -81.5t-81 -33.5zM462 460q-25 0 -43 -18t-18 -43t18 -43
t43 -18h366q25 0 43 18t18 43t-18 43t-43 18h-366zM178 609h-14q-47 0 -81 33.5t-34 81.5t34 81.5t81 33.5h14q48 0 81.5 -33.5t33.5 -81.5t-33.5 -81.5t-81.5 -33.5zM164 785q-25 0 -42.5 -18t-17.5 -43t17.5 -43t42.5 -18h14q25 0 43 18t18 43t-18 43t-43 18h-14zM178 -27
h-14q-47 0 -81 33.5t-34 81t34 81.5t81 34h14q48 0 81.5 -34t33.5 -81.5t-33.5 -81t-81.5 -33.5zM164 149q-25 0 -42.5 -18t-17.5 -43t17.5 -43t42.5 -18h14q25 0 43 18t18 43t-18 43t-43 18h-14zM178 284h-14q-47 0 -81 33.5t-34 81.5t34 81.5t81 33.5h14q48 0 81.5 -33.5
t33.5 -81.5t-33.5 -81.5t-81.5 -33.5zM164 460q-25 0 -42.5 -18t-17.5 -43t17.5 -43t42.5 -18h14q25 0 43 18t18 43t-18 43t-43 18h-14z" />
    <glyph glyph-name="uniE66D" unicode="&#xe66d;" 
d="M736 606h9q6 0 22 -5t27.5 -13t21.5 -26.5t10 -43.5q-1 -1 0.5 -9.5t-3.5 -21.5t-12.5 -25.5t-27.5 -22t-47 -10.5q-4 0 -10 0.5t-21 5t-27 13t-21 26.5t-9 44q0 3 0.5 8.5t5 20t12.5 25.5t26.5 21.5t43.5 12.5zM914 743q2 0 5 -0.5t11.5 -3.5t14.5 -7.5t11 -13.5t5 -21
v-626q0 -2 -0.5 -5t-3 -10.5t-7.5 -13.5t-14.5 -11t-21.5 -6v718zM65 71q0 -2 0.5 -5t3 -11t7 -14t13.5 -11t22 -5h803v133h-88l-178 181l-134 -135l-183 225l-180 -269l-40 -1l-1 538h-45v-626zM914 743h-803q-2 0 -5 -0.5t-11 -2.5t-14 -6.5t-11 -14t-5 -22.5h849v46z
M914 743z" />
  </font>
</defs>
</svg>
